<svg width="1238" height="836" viewBox="0 0 1238 836" fill="none" xmlns="http://www.w3.org/2000/svg">
<path d="M204.258 313.655C169.651 365.008 122.898 396.421 64.0003 407.895C5.10218 419.369 -49.0723 408.444 -98.523 375.119C-170.797 326.413 -216.47 253.111 -235.542 155.212C-254.613 57.3141 -241.802 -40.1865 -197.107 -137.289C-233.264 -157.508 -264.946 -166.412 -292.152 -164.004C-319.358 -161.595 -341.293 -148.028 -357.955 -123.303C-377.181 -94.7735 -386.122 -55.856 -384.778 -6.55014C-383.434 42.7556 -371.04 108.497 -347.596 190.673C-309.143 324.45 -288.299 417.665 -285.063 470.32C-281.827 522.975 -293.667 569.273 -320.584 609.214C-353.268 657.714 -398.894 686.429 -457.461 695.36C-516.029 704.292 -570.989 691.454 -622.341 656.847C-673.694 622.24 -718.705 575.658 -757.375 517.101C-796.045 458.545 -834.999 377.325 -874.237 273.441C-886.786 238.71 -898.736 211.298 -910.085 191.203C-921.435 171.109 -932.34 157.537 -942.801 150.487C-949.458 146.001 -955.252 143.826 -960.182 143.96C-965.113 144.094 -969.18 146.539 -972.385 151.294C-978.793 160.804 -980.861 176.696 -978.586 198.972C-976.312 221.247 -969.221 250.226 -957.313 285.908L-1125.88 317.508C-1142.46 262.083 -1149.93 212.111 -1148.27 167.591C-1146.62 123.071 -1135.54 85.595 -1115.03 55.1638C-1085.55 11.4189 -1045.34 -15.4153 -994.403 -25.3387C-943.464 -35.2622 -895.171 -24.8431 -849.524 5.9185C-821.946 24.5036 -796.321 52.1437 -772.65 88.8387C-748.979 125.534 -725.06 176.224 -700.892 240.911C-673.892 311.655 -646.825 368.961 -619.692 412.83C-592.558 456.698 -564.251 488.566 -534.77 508.433C-518.604 519.328 -504.241 525.204 -491.682 526.062C-479.123 526.92 -469.639 522.594 -463.23 513.084C-456.822 503.574 -453.829 493.491 -454.253 482.834C-454.677 472.177 -458.465 450.609 -465.619 418.132C-470.601 396.797 -477.072 371.002 -485.031 340.746C-492.991 310.491 -502.904 273.388 -514.77 229.436C-545.719 121.46 -560.067 32.9679 -557.814 -36.0396C-555.561 -105.047 -536.49 -166.178 -500.601 -219.433C-457.663 -283.148 -401.019 -321.032 -330.667 -333.085C-260.316 -345.138 -186.13 -329.024 -108.109 -284.742L121.464 -591.633L264.109 -495.503L34.5375 -188.612C135.92 -109.227 202.049 -24.2136 232.925 66.4283C263.801 157.07 254.245 239.479 204.258 313.655ZM63.534 214.672C84.0418 184.241 83.9899 146.869 63.3784 102.556C42.7669 58.2427 4.11783 11.4541 -52.5686 -37.8101C-71.5878 12.9843 -76.5387 64.9622 -67.4215 118.124C-58.3043 171.285 -38.5301 208.119 -8.09884 228.627C5.21478 237.599 18.2391 240.845 30.9738 238.364C43.7086 235.883 54.5619 227.986 63.534 214.672Z" fill="#C2C2C2" fill-opacity="0.32"/>
<path d="M1217.89 282.045C1216.13 343.945 1193.44 395.499 1149.82 436.706C1106.2 477.913 1054.59 497.669 994.982 495.974C907.863 493.496 830.057 456.007 761.565 383.504C693.072 311.002 651.728 221.777 637.532 115.828C596.168 118.094 564.638 127.522 542.942 144.114C521.247 160.705 509.975 183.903 509.128 213.707C508.15 248.096 521.419 285.758 548.936 326.693C576.452 367.629 622.098 416.536 685.872 473.417C789.935 565.86 857.42 633.457 888.327 676.21C919.233 718.963 934.002 764.411 932.633 812.556C930.971 871.017 907.789 919.689 863.089 958.571C818.389 997.452 765.089 1016.01 703.188 1014.25C641.288 1012.49 578.338 997.223 514.338 968.443C450.338 939.663 373.972 891.889 285.24 825.121C256.056 802.494 231.294 785.729 210.954 774.825C190.614 763.922 174.139 758.291 161.53 757.932C153.505 757.704 147.447 758.966 143.353 761.718C139.26 764.469 137.131 768.711 136.968 774.442C136.642 785.905 143.399 800.438 157.239 818.04C171.079 835.642 192.575 856.329 221.726 880.103L96.2229 996.993C52.5603 959.04 19.5173 920.815 -2.90608 882.319C-25.3295 843.823 -36.0197 806.234 -34.9766 769.553C-33.4771 716.823 -13.865 672.639 23.8597 637C61.5843 601.362 107.958 584.325 162.98 585.89C196.223 586.835 232.66 596.475 272.292 614.811C311.923 633.146 359.253 663.173 414.28 704.89C474.942 750.21 528.47 784.141 574.865 806.684C621.261 829.227 662.226 841.004 697.761 842.015C717.248 842.569 732.527 839.848 743.596 833.853C754.665 827.858 760.362 819.129 760.688 807.666C761.014 796.203 758.147 786.084 752.087 777.307C746.027 768.531 731.287 752.337 707.866 728.727C692.242 713.368 672.973 695.038 650.061 673.737C627.149 652.435 598.922 626.393 565.38 595.612C481.461 520.95 421.992 453.867 386.973 394.363C351.954 334.858 335.357 273.01 337.183 208.817C339.367 132.015 366.951 69.7019 419.936 21.8779C472.922 -25.9461 544.218 -52.0257 633.825 -56.361L663.57 -438.461L835.514 -433.572L805.769 -51.4714C933.894 -38.6502 1035.25 -2.21147 1109.83 57.8443C1184.41 117.9 1220.43 192.634 1217.89 282.045ZM1046.04 273.717C1047.09 237.035 1027.05 205.49 985.924 179.082C944.802 152.673 887.116 133.825 812.867 122.535C823.977 175.624 847.605 222.185 883.751 262.218C919.898 302.252 956.312 322.79 992.993 323.833C1009.04 324.289 1021.78 320.063 1031.21 311.153C1040.64 302.244 1045.59 289.765 1046.04 273.717Z" fill="#C2C2C2" fill-opacity="0.32"/>
</svg>
