<svg xmlns="http://www.w3.org/2000/svg" width="1920" height="1150" fill="none"><g clip-path="url(#a)"><path fill="#7724FF" d="M0 0h1920v1150H0z"/><g filter="url(#b)"><circle cx="957.5" cy="785.5" r="695.5" fill="#F97129"/></g><g filter="url(#c)"><path fill="#7724FF" d="M-30.881 842.742h1973.76v857.489H-30.881z"/></g><path fill="#7724FF" fill-rule="evenodd" d="M818.935 620.797h-28.117v359.654h28.117V620.797Zm-3.515 3.514h-21.087v21.088h21.087v-21.088Z" clip-rule="evenodd"/><path fill="#7724FF" d="M1198.5 620.212v-33.388l27.53 27.531v370.197h-27.53v-353.21h4.1v-11.13h-4.1ZM985.289 681.668v291.756h35.141V666.631s-25.276-2.663-35.141 15.037ZM841.193 985.137V654.771h1.758v-6.443h1.757v-5.272h2.929v-8.201h30.459v8.201h2.929v5.272h1.757v6.443h1.757v330.366h-43.346Z"/><path fill="#7724FF" d="M869.309 983.964V712.173h2.042v-6.443h2.042v-5.272h3.404v-8.2h35.398v8.2h3.404v5.272h2.042v6.443h2.043v271.791h-50.375ZM1141.1 965.219V644.556h1.85v-5.792h1.85v-4.739h3.09v-7.373H1180v7.373h3.08v4.739h1.86v5.792h1.85v320.663h-45.69ZM1241.85 978.106V627.824h42.89v5.716h3.4v3.674h2.04v4.491h2.04v336.401h-50.37Z"/><path fill="#7724FF" d="M1279.34 978.109V662.973h23.93v5.715h1.9v3.674h1.14v4.491h1.14v301.256h-28.11ZM1182.1 987.476V660.625h23.94v5.716h1.9v3.674h1.14v4.491h1.14v312.97h-28.12ZM749.814 968.736V696.732h1.283v-4.1h1.282v-3.355h2.137v-5.218h5.842l1.172-11.715h7.614l2.043 11.715h5.556v5.218h2.138v3.355h1.282v4.1h1.282v272.004h-31.631ZM1120.01 981.625V668.641h.71v-2.135h.72v-1.746h1.18v-2.716h3.25l.65-6.099h4.23l1.14 6.099h3.08v2.716h1.19v1.746h.71v2.135h.71v312.984h-17.57ZM691.826 966.39V632.51h6.443v-2.929h3.515v-2.929h7.615v2.929h3.514v2.929h7.615v333.88h-28.702ZM889.225 980.45V611.424h6.443v-2.929h3.514v-2.929h7.615v2.929h3.515v2.929h7.615V980.45h-28.702Z"/><path fill="#7724FF" d="M865.795 975.766V618.455h6.443v-2.929h3.515v-2.928h7.615v2.928h3.514v2.929h7.615v357.311h-28.702ZM593.418 684.642v318.648h32.802V684.642h-4.686v-6.443h-3.514v-5.272h-3.515v-8.2h-8.786v8.2h-4.1v5.272h-2.929v6.443h-5.272ZM647.895 661.798v318.651h39.831V661.798h-1.757v-6.443h-1.758v-5.272h-2.928v-8.2h-26.945v8.2h-2.929v5.272h-1.757v6.443h-1.757ZM740.443 661.798v306.936h-32.802V661.798h4.686v-6.443h3.515v-5.272h3.514v-8.2H734v8.2h2.929v5.272h1.757v6.443h1.757ZM1093.65 558.121v405.928h-70.29V621.383h5.86V576.28h7.62v-13.473l5.27-4.686h51.54Z"/><path fill="#7724FF" fill-rule="evenodd" d="m1120.01 650.232-9.37-31.779h-9.37V980.45h18.74V650.232Z" clip-rule="evenodd"/><g filter="url(#d)"><ellipse cx="958.343" cy="897.276" fill="#F97129" rx="936.037" ry="217.901"/></g><g filter="url(#e)"><path fill="#7724FF" d="M-169.82 774.266h2251.64v682.991H-169.82z"/></g><path fill="#7724FF" d="M837.678 1507.63h242.502v-26.94h-28.12v-11.72h-11.71v-21.08h-10.54v-124.77l-9.38 6.44v-185.1l-8.2 5.86V946.479l-9.37 4.686V739.122l-8.2 5.858V559.881l-9.372 5.857v-78.491l-8.201 5.858V334.951l-9.372 5.857v-94.892l-4.686 4.686V101.82h-8.2v125.352l-4.686-4.1v94.306l-9.372-5.857v117.151l-8.201-4.686v96.064l-9.372-4.687v296.393l-8.201-4.686v188.613l-9.372-4.686v202.673l-8.2-4.69v185.1l-9.372-5.27v77.9h-9.372v21.09h-12.887v12.89h-28.116v26.94ZM1574.56 673.518v305.764h46.27V668.246l-5.85-2.929v-77.905h-2.93v-11.716l-4.1-14.643-4.1-9.373-9.38-7.614-8.78-2.343v41.588h-2.93v22.845l-4.1 2.343v56.818h-2.34v5.272l-1.76 2.929ZM462.795 981.625V717.449h7.615v-9.958h9.958l7.029-3.514 15.815 1.171v276.477h-40.417ZM536.602 762.555v234.302h86.106V762.555l-16.402-24.602H550.66l-14.058 24.602ZM304.641 722.719V980.451h86.106V722.719l-3.515-17.573-12.887-7.029h-55.646l-14.058 24.602ZM394.262 979.864V631.34h26.944l21.673 7.029v341.495h-48.617ZM1053.24 767.238v197.985h42.17v-182.17h-4.1v-12.3h-5.86v-5.858h-5.85v-6.443h-5.86v-4.686h-14.06v13.472h-6.44ZM1146.96 764.397v209.03h59.74V780.312h-5.8v-12.378h-8.3v-5.895h-8.3v-6.484h-8.3v-4.715h-29.04v13.557Z"/><path fill="#7724FF" d="M1255.91 729.249V973.424h-59.75V745.163h5.81v-12.378h8.3v-5.894h8.3v-6.484h8.29v-4.716h29.05v13.558ZM815.42 971.08V734.435h2.042v-6.443h2.042v-5.272h3.404v-8.2h35.399v8.2h3.403v5.272h2.043v6.443h2.042V971.08H815.42ZM296.441 979.281V604.894h1.758v-5.467h1.757v-4.473h2.929v-6.958h30.459v6.958h2.929v4.473h1.757v5.467h1.757v374.387h-43.346ZM762.701 985.14V713.349h2.042v-6.443h2.043v-5.272h3.403v-8.2h35.399v8.2h3.404v5.272h2.042v6.443h2.042V985.14h-50.375ZM993.49 972.255V788.15h1.425v-4.491h1.425v-3.674h2.375v-5.715h24.695v5.715h2.38v3.674h1.42v4.491h1.43v184.105h-35.15ZM1275.82 971.083v-172.39h1.81v-4.49h1.8v-3.675h3.01v-5.715l31.28-11.715v5.715h3.01v3.674h1.81v4.491h1.8v184.105h-44.52ZM924.371 976.941V798.658h1.282v-4.1h1.283v-3.355h2.137v-5.218h5.842l1.171-11.715h7.615l2.042 11.715h5.557v5.218h2.137v3.355h1.283v4.1h1.282v178.283h-31.631Z"/><g filter="url(#f)"><circle cx="954.83" cy="1350.65" r="527.18" fill="#F97129"/></g><g filter="url(#g)"><path fill="#7724FF" d="M-169.82 834.012h2251.64v682.991H-169.82z"/></g><path fill="#7724FF" d="M229.664 843.39v141.753h97.235V828.746h-70.29l-26.945 14.644ZM438.193 973.427V752.012h-75.8v9.857h-6.015v6.337h-3.61v7.745h-3.609v197.476h89.034ZM671.324 798.289v171.04h133.552V742.056s-96.064-9.957-133.552 56.233Z"/><g filter="url(#h)"><circle cx="954.83" cy="1355.34" r="527.18" fill="#F97129"/></g><g filter="url(#i)"><path fill="#7724FF" d="M-169.82 906.652h2251.64v1334.35H-169.82z"/></g></g><defs><filter id="b" width="1953.76" height="1953.76" x="-19.38" y="-191.38" color-interpolation-filters="sRGB" filterUnits="userSpaceOnUse"><feFlood flood-opacity="0" result="BackgroundImageFix"/><feBlend in="SourceGraphic" in2="BackgroundImageFix" result="shape"/><feGaussianBlur result="effect1_foregroundBlur_26_20488" stdDeviation="140.69"/></filter><filter id="c" width="2536.52" height="1420.25" x="-312.26" y="561.363" color-interpolation-filters="sRGB" filterUnits="userSpaceOnUse"><feFlood flood-opacity="0" result="BackgroundImageFix"/><feBlend in="SourceGraphic" in2="BackgroundImageFix" result="shape"/><feGaussianBlur result="effect1_foregroundBlur_26_20488" stdDeviation="140.69"/></filter><filter id="d" width="2514.06" height="1077.79" x="-298.687" y="358.381" color-interpolation-filters="sRGB" filterUnits="userSpaceOnUse"><feFlood flood-opacity="0" result="BackgroundImageFix"/><feBlend in="SourceGraphic" in2="BackgroundImageFix" result="shape"/><feGaussianBlur result="effect1_foregroundBlur_26_20488" stdDeviation="160.497"/></filter><filter id="e" width="2354.74" height="786.083" x="-221.367" y="722.719" color-interpolation-filters="sRGB" filterUnits="userSpaceOnUse"><feFlood flood-opacity="0" result="BackgroundImageFix"/><feBlend in="SourceGraphic" in2="BackgroundImageFix" result="shape"/><feGaussianBlur result="effect1_foregroundBlur_26_20488" stdDeviation="25.773"/></filter><filter id="f" width="1696.35" height="1696.35" x="106.657" y="502.475" color-interpolation-filters="sRGB" filterUnits="userSpaceOnUse"><feFlood flood-opacity="0" result="BackgroundImageFix"/><feBlend in="SourceGraphic" in2="BackgroundImageFix" result="shape"/><feGaussianBlur result="effect1_foregroundBlur_26_20488" stdDeviation="160.497"/></filter><filter id="g" width="2331.31" height="762.653" x="-209.652" y="794.18" color-interpolation-filters="sRGB" filterUnits="userSpaceOnUse"><feFlood flood-opacity="0" result="BackgroundImageFix"/><feBlend in="SourceGraphic" in2="BackgroundImageFix" result="shape"/><feGaussianBlur result="effect1_foregroundBlur_26_20488" stdDeviation="19.916"/></filter><filter id="h" width="1696.35" height="1696.35" x="106.657" y="507.166" color-interpolation-filters="sRGB" filterUnits="userSpaceOnUse"><feFlood flood-opacity="0" result="BackgroundImageFix"/><feBlend in="SourceGraphic" in2="BackgroundImageFix" result="shape"/><feGaussianBlur result="effect1_foregroundBlur_26_20488" stdDeviation="160.497"/></filter><filter id="i" width="2331.31" height="1414.01" x="-209.652" y="866.821" color-interpolation-filters="sRGB" filterUnits="userSpaceOnUse"><feFlood flood-opacity="0" result="BackgroundImageFix"/><feBlend in="SourceGraphic" in2="BackgroundImageFix" result="shape"/><feGaussianBlur result="effect1_foregroundBlur_26_20488" stdDeviation="19.916"/></filter><clipPath id="a"><path fill="#fff" d="M0 0h1920v1150H0z"/></clipPath></defs></svg>