<svg width="353" height="75" viewBox="0 0 353 75" fill="none" xmlns="http://www.w3.org/2000/svg">
<rect x="1.46466" y="1.46466" width="349.566" height="71.2802" rx="10.9036" fill="black" stroke="black" stroke-width="2.92932"/>
<path fill-rule="evenodd" clip-rule="evenodd" d="M62.5886 60.8106C65.0076 60.8106 66.9888 59.0235 66.9888 56.8414H66.9948V17.3682C66.9948 15.1861 65.0134 13.3989 62.5946 13.3989H18.8298C16.4109 13.3989 14.4297 15.1861 14.4297 17.3628V56.8414C14.4297 59.0287 16.4109 60.8106 18.8239 60.8106H62.5886ZM26.6873 44.4935H22.5119V28.0977H26.7134L32.3502 35.0074L37.6738 28.0977H41.6143V44.4935H37.439V34.0471L32.3502 40.4414H31.7501L26.6873 34.1173V44.4935ZM54.9786 41.2613C56.2834 41.2613 57.7187 40.8864 58.9452 40.0667L60.5371 42.8772C59.441 43.9781 57.0663 44.7745 54.5871 44.7745C48.9243 44.7745 45.0097 41.4018 45.0097 36.2957C45.0097 31.5877 48.2718 27.8166 54.5609 27.8166C56.9879 27.8166 59.0496 28.5663 60.1457 29.5264L58.2927 32.3371C57.3011 31.7985 56.2834 31.3301 54.5609 31.3301C51.7426 31.3301 49.4462 33.0633 49.4462 36.2957C49.4462 39.2 51.6906 41.2613 54.9786 41.2613Z" fill="white"/>
<path d="M287.583 21.4973C287.063 21.4973 286.579 21.4061 286.129 21.2236C285.678 21.0327 285.284 20.7799 284.946 20.4645C284.618 20.141 284.354 19.7678 284.155 19.3447C283.964 18.9134 283.869 18.4531 283.869 17.9635C283.869 17.474 283.964 17.0178 284.155 16.5948C284.354 16.1635 284.618 15.7902 284.946 15.475C285.284 15.1515 285.678 14.8984 286.129 14.7159C286.579 14.5251 287.063 14.4297 287.583 14.4297C288.102 14.4297 288.588 14.5251 289.037 14.7159C289.487 14.8984 289.877 15.1515 290.206 15.475C290.544 15.7902 290.809 16.1635 290.999 16.5948C291.197 17.0178 291.298 17.474 291.298 17.9635C291.298 18.4531 291.197 18.9134 290.999 19.3447C290.809 19.7678 290.544 20.141 290.206 20.4645C289.877 20.7799 289.487 21.0327 289.037 21.2236C288.588 21.4061 288.102 21.4973 287.583 21.4973ZM287.583 20.6513C287.973 20.6513 288.332 20.5848 288.66 20.4521C288.998 20.3111 289.292 20.1203 289.544 19.8798C289.795 19.6309 289.99 19.3447 290.128 19.0211C290.276 18.6895 290.349 18.3368 290.349 17.9635C290.349 17.5903 290.276 17.2419 290.128 16.9184C289.99 16.5865 289.795 16.3005 289.544 16.0598C289.292 15.8109 288.998 15.62 288.66 15.4873C288.332 15.3464 287.973 15.2759 287.583 15.2759C287.193 15.2759 286.829 15.3464 286.491 15.4873C286.163 15.62 285.873 15.8109 285.622 16.0598C285.37 16.3005 285.173 16.5865 285.024 16.9184C284.887 17.2419 284.816 17.5903 284.816 17.9635C284.816 18.3368 284.887 18.6895 285.024 19.0211C285.173 19.3447 285.37 19.6309 285.622 19.8798C285.873 20.1203 286.163 20.3111 286.491 20.4521C286.829 20.5848 287.193 20.6513 287.583 20.6513ZM287.635 18.6354H287.102V19.83H286.181V16.0971H287.648C288.211 16.0971 288.618 16.2049 288.869 16.4206C289.121 16.6364 289.245 16.9556 289.245 17.3788C289.245 17.9511 288.993 18.3287 288.491 18.511L289.154 19.83H288.18L287.635 18.6354ZM287.102 16.8934V17.8516H287.648C287.882 17.8516 288.042 17.8142 288.128 17.7396C288.224 17.6567 288.27 17.5362 288.27 17.3788C288.27 17.2212 288.224 17.1009 288.128 17.0178C288.042 16.935 287.882 16.8934 287.648 16.8934H287.102Z" fill="white"/>
<path d="M85.5469 47.0604H90.2511V34.087L95.9549 41.9941H96.6313L102.365 33.999V47.0604H107.069V26.5606H102.629L96.6313 35.1998L90.2806 26.5606H85.5469V47.0604ZM112.365 47.0604H124.861V42.6676H117.069V38.9483H123.684V34.5554H117.069V30.9534H124.566V26.5606H112.365V47.0604ZM137.744 39.7683H142.125V41.9941C141.655 42.4333 140.126 43.019 138.891 43.019C135.216 43.019 132.805 40.5883 132.805 36.8105C132.805 32.5935 135.421 30.602 138.803 30.602C140.39 30.602 142.184 31.2464 143.007 32.1247L144.977 28.3469C143.301 27.0292 141.302 26.209 138.244 26.209C131.776 26.209 127.806 30.9241 127.806 36.8105C127.806 43.1947 131.776 47.4117 138.832 47.4117C141.39 47.4117 144.713 46.3282 146.535 44.5126V35.3754H137.744V39.7683ZM147.993 47.0604H152.726L154.432 42.7554H162.576L164.281 47.0604H169.309L160.753 26.5606H156.549L147.993 47.0604ZM158.519 32.5641L160.812 38.3626H156.196L158.519 32.5641ZM185.457 41.5255C184.074 42.5504 182.457 43.019 180.987 43.019C177.282 43.019 174.754 40.4418 174.754 36.8105C174.754 32.7691 177.341 30.602 180.517 30.602C182.457 30.602 183.604 31.1877 184.721 31.8611L186.809 28.3469C185.574 27.1463 183.251 26.209 180.517 26.209C173.432 26.209 169.757 30.9241 169.757 36.8105C169.757 43.1947 174.166 47.4117 180.546 47.4117C183.34 47.4117 186.015 46.4161 187.251 45.0396L185.457 41.5255ZM187.847 47.0604H192.58L194.286 42.7554H202.429L204.136 47.0604H209.163L200.606 26.5606H196.402L187.847 47.0604ZM198.372 32.5641L200.666 38.3626H196.049L198.372 32.5641ZM211.798 47.0604H216.502V34.087L222.205 41.9941H222.881L228.614 33.999V47.0604H233.32V26.5606H228.881L222.881 35.1998L216.532 26.5606H211.798V47.0604ZM243.32 47.0604V40.0904C244.054 40.1782 245.172 40.1782 245.612 40.1782C250.375 40.1782 253.228 36.9568 253.228 33.2962C253.228 29.7527 251.17 26.5019 244.906 26.5019C243.32 26.5019 239.762 26.5606 238.614 26.5606V47.0604H243.32ZM245.378 30.8948C247.053 30.8948 248.23 31.4512 248.23 33.2668C248.23 35.2583 246.7 35.7855 245.467 35.7855C244.789 35.7855 243.994 35.7269 243.32 35.6391V30.9534C244.29 30.9241 244.761 30.8948 245.378 30.8948ZM274.131 26.5606H269.427V37.6597C269.427 40.9397 268.573 43.019 265.722 43.019C262.43 43.019 261.458 40.5883 261.458 37.3962V26.5606H256.754V38.3919C256.754 44.3954 260.43 47.4117 265.722 47.4117C270.133 47.4117 274.131 44.864 274.131 38.597V26.5606ZM286.685 41.4377C286.685 42.404 285.979 43.019 284.745 43.019C283.303 43.019 281.509 42.3453 280.334 40.8519L277.66 44.044C278.659 46.2404 281.862 47.4117 284.628 47.4117C288.596 47.4117 291.684 44.9518 291.684 41.379C291.684 34.7019 283.099 35.5219 283.099 32.1247C283.099 31.1877 283.862 30.602 285.157 30.602C286.685 30.602 287.361 31.1291 288.273 31.9784L290.8 28.4641C289.508 27.0877 287.391 26.209 284.745 26.209C280.629 26.209 278.1 28.962 278.1 32.1247C278.1 38.7433 286.685 38.3626 286.685 41.4377Z" fill="white"/>
</svg>
