<svg width="477" height="74" viewBox="0 0 477 74" fill="none" xmlns="http://www.w3.org/2000/svg">
<rect x="2.85156" y="1.03198" width="473.147" height="71.1788" rx="11.3683" stroke="white" stroke-width="2"/>
<path d="M92.2913 33.4922H88.7788L84.3509 20.0108V33.4922H81.061V15.5582H86.2062L90.5598 29.5343L94.7897 15.5582H99.9844V33.4922H96.6944V20.0108L92.2913 33.4922ZM115.097 27.6049H118.461C117.991 31.2412 114.973 33.8138 110.694 33.8138C105.351 33.8138 102.308 30.1775 102.308 24.4386C102.308 18.774 105.573 15.2366 110.793 15.2366C114.998 15.2366 117.868 17.6361 118.461 21.3713H115.097C114.429 18.8729 112.747 18.0566 110.768 18.0566C108.072 18.0566 105.969 20.2829 105.969 24.4386C105.969 28.718 108.072 30.9938 110.644 30.9938C112.772 30.9938 114.503 30.0538 115.097 27.6049ZM121.72 33.4922H118.554L125.48 15.5582H128.646L121.72 33.4922ZM136.672 26.0465L134.397 25.626C131.503 25.0323 129.029 23.5481 129.029 20.4313C129.029 16.8198 132.888 15.2366 136.178 15.2366C139.888 15.2366 143.03 17.4135 143.228 20.8518H139.814C139.542 18.7492 137.711 18.0566 136.029 18.0566C134.372 18.0566 132.566 18.675 132.566 20.2829C132.566 21.5445 133.605 22.2371 135.065 22.5092L137.415 22.9297C140.333 23.4739 143.549 24.587 143.549 28.3223C143.549 32.008 139.888 33.8138 136.277 33.8138C131.874 33.8138 128.955 31.4391 128.633 27.5802H132.047C132.443 30.227 134.273 30.9938 136.4 30.9938C137.984 30.9938 139.987 30.4001 139.987 28.4954C139.987 26.9865 138.577 26.3681 136.672 26.0465ZM144.968 15.5582H148.506V25.9228C148.506 29.0891 149.149 30.9938 152.414 30.9938C155.679 30.9938 156.273 29.0891 156.273 25.9228V15.5582H159.81V25.8981C159.81 31.8101 157.658 33.8138 152.414 33.8138C147.17 33.8138 144.968 31.8101 144.968 25.8981V15.5582ZM173.49 33.4922H169.977L165.549 20.0108V33.4922H162.259V15.5582H167.405L171.758 29.5343L175.988 15.5582H181.183V33.4922H177.893V20.0108L173.49 33.4922ZM195.123 33.4922H191.61L187.182 20.0108V33.4922H183.892V15.5582H189.037L193.391 29.5343L197.621 15.5582H202.816V33.4922H199.526V20.0108L195.123 33.4922ZM209.062 15.5582V33.4922H205.525V15.5582H209.062ZM215.826 33.4922V18.4277H210.31V15.5582H224.905V18.4277H219.364V33.4922H215.826ZM242.843 24.5128C242.843 19.145 239.652 18.3287 236.387 18.3287H234.754V30.7217H236.387C239.652 30.7217 242.843 29.9301 242.843 24.5128ZM231.217 15.5582H236.536C242.225 15.5582 246.504 17.3887 246.504 24.5128C246.504 31.6369 242.225 33.4922 236.536 33.4922H231.217V15.5582ZM248.502 33.4922V15.5582H261.563V18.4277H252.039V22.8802H261.043V25.7497H252.039V30.6228H261.563V33.4922H248.502ZM275.444 27.6049H278.809C278.339 31.2412 275.321 33.8138 271.041 33.8138C265.698 33.8138 262.656 30.1775 262.656 24.4386C262.656 18.774 265.921 15.2366 271.14 15.2366C275.346 15.2366 278.215 17.6361 278.809 21.3713H275.444C274.777 18.8729 273.095 18.0566 271.116 18.0566C268.419 18.0566 266.317 20.2829 266.317 24.4386C266.317 28.718 268.419 30.9938 270.992 30.9938C273.119 30.9938 274.851 30.0538 275.444 27.6049ZM283.125 33.4922H279.464V29.7817H283.125V33.4922ZM291.239 31.2412C293.119 31.2412 294.604 30.128 294.604 28.4459C294.604 26.3433 292.649 25.5023 290.101 25.5023H289.384V22.8308H289.978C292.55 22.8308 294.158 21.8908 294.158 20.2087C294.158 18.6503 292.798 17.8092 291.314 17.8092C289.236 17.8092 287.949 19.0955 287.776 20.9755H284.536C284.932 17.3887 287.38 15.2366 291.511 15.2366C294.505 15.2366 297.597 16.6714 297.597 20.0603C297.597 21.8166 296.558 23.2265 295.172 23.9934C297.028 24.7849 298.067 26.5412 298.067 28.347C298.067 31.9833 294.925 33.8138 291.14 33.8138C287.034 33.8138 284.585 31.1422 284.387 27.8523H287.603C287.875 29.658 288.988 31.2412 291.239 31.2412ZM307.794 28.3717H299.607V25.4033H307.794V28.3717ZM318.286 19.8871L313.166 26.2939H318.286V19.8871ZM324.743 26.2939V29.188H321.675V33.4922H318.286V29.188H309.431V26.5165L318.336 15.5582H321.675V26.2939H324.743ZM332.544 33.4922H329.378L336.304 15.5582H339.47L332.544 33.4922ZM345.245 15.2366C348.832 15.2366 351.133 16.9187 351.133 20.0603C351.133 23.3997 347.867 26.937 342.351 30.6228H351.553V33.4922H338.369V30.7217C344.132 26.096 347.694 23.0781 347.694 20.2334C347.694 18.6503 346.73 17.7598 345.047 17.7598C343.538 17.7598 342.005 18.675 342.005 21.3466H338.69C338.616 17.6608 341.287 15.2366 345.245 15.2366ZM360.2 19.8871L355.08 26.2939H360.2V19.8871ZM366.656 26.2939V29.188H363.589V33.4922H360.2V29.188H351.345V26.5165L360.25 15.5582H363.589V26.2939H366.656ZM92.9345 53.6049H96.2987C95.8287 57.2412 92.8108 59.8138 88.5314 59.8138C83.1883 59.8138 80.1457 56.1775 80.1457 50.4386C80.1457 44.774 83.4109 41.2366 88.6303 41.2366C92.8355 41.2366 95.705 43.6361 96.2987 47.3713H92.9345C92.2666 44.8729 90.5845 44.0566 88.6056 44.0566C85.9093 44.0566 83.8067 46.2829 83.8067 50.4386C83.8067 54.718 85.9093 56.9938 88.4819 56.9938C90.6093 56.9938 92.3408 56.0538 92.9345 53.6049ZM101.186 50.5128C101.186 54.7428 103.511 56.9938 106.306 56.9938C109.101 56.9938 111.427 54.7428 111.427 50.5128C111.427 46.3076 109.101 44.0566 106.306 44.0566C103.511 44.0566 101.186 46.3076 101.186 50.5128ZM115.088 50.5128C115.088 56.0785 111.649 59.8138 106.306 59.8138C100.963 59.8138 97.5247 56.0785 97.5247 50.5128C97.5247 44.9471 100.963 41.2366 106.306 41.2366C111.649 41.2366 115.088 44.9471 115.088 50.5128ZM129.485 53.6049H132.849C132.379 57.2412 129.361 59.8138 125.082 59.8138C119.738 59.8138 116.696 56.1775 116.696 50.4386C116.696 44.774 119.961 41.2366 125.18 41.2366C129.386 41.2366 132.255 43.6361 132.849 47.3713H129.485C128.817 44.8729 127.135 44.0566 125.156 44.0566C122.459 44.0566 120.357 46.2829 120.357 50.4386C120.357 54.718 122.459 56.9938 125.032 56.9938C127.159 56.9938 128.891 56.0538 129.485 53.6049ZM132.58 59.4922L139.259 41.5582H142.821L149.525 59.4922H145.691L144.429 55.8559H137.453L136.192 59.4922H132.58ZM140.941 45.8871L138.468 52.9617H143.415L140.941 45.8871ZM157.377 54.3717H149.189V51.4033H157.377V54.3717ZM172.352 53.6049H175.716C175.246 57.2412 172.229 59.8138 167.949 59.8138C162.606 59.8138 159.563 56.1775 159.563 50.4386C159.563 44.774 162.829 41.2366 168.048 41.2366C172.253 41.2366 175.123 43.6361 175.716 47.3713H172.352C171.684 44.8729 170.002 44.0566 168.023 44.0566C165.327 44.0566 163.224 46.2829 163.224 50.4386C163.224 54.718 165.327 56.9938 167.9 56.9938C170.027 56.9938 171.759 56.0538 172.352 53.6049ZM180.603 50.5128C180.603 54.7428 182.929 56.9938 185.724 56.9938C188.519 56.9938 190.844 54.7428 190.844 50.5128C190.844 46.3076 188.519 44.0566 185.724 44.0566C182.929 44.0566 180.603 46.3076 180.603 50.5128ZM194.505 50.5128C194.505 56.0785 191.067 59.8138 185.724 59.8138C180.381 59.8138 176.942 56.0785 176.942 50.5128C176.942 44.9471 180.381 41.2366 185.724 41.2366C191.067 41.2366 194.505 44.9471 194.505 50.5128ZM200.052 41.5582V56.6228H208.784V59.4922H196.515V41.5582H200.052ZM208.519 59.4922L215.198 41.5582H218.76L225.464 59.4922H221.63L220.368 55.8559H213.393L212.131 59.4922H208.519ZM216.88 45.8871L214.407 52.9617H219.354L216.88 45.8871ZM230.044 59.4922L236.723 41.5582H240.285L246.989 59.4922H243.154L241.893 55.8559H234.917L233.656 59.4922H230.044ZM238.405 45.8871L235.931 52.9617H240.879L238.405 45.8871ZM258.95 59.4922L255.388 52.467H254.547H251.628V59.4922H248.091V41.5582H253.978C259.89 41.5582 262.141 43.2403 262.141 47.0003C262.141 49.0781 261.152 50.7602 258.901 51.7249L262.884 59.4922H258.95ZM254.374 44.3287H251.628V49.7213H254.547C257.318 49.7213 258.505 48.806 258.505 47.025C258.505 44.9471 256.774 44.3287 254.374 44.3287ZM264.337 59.4922V41.5582H277.398V44.4277H267.874V48.8802H276.878V51.7497H267.874V56.6228H277.398V59.4922H264.337ZM294.223 59.4922H289.622L282.449 45.8129V59.4922H279.109V41.5582H283.71L290.884 55.2375V41.5582H294.223V59.4922ZM295.1 59.4922L301.779 41.5582H305.341L312.045 59.4922H308.211L306.949 55.8559H299.973L298.712 59.4922H295.1ZM303.461 45.8871L300.987 52.9617H305.935L303.461 45.8871ZM313.84 59.4922V55.7817H317.674V59.7643L315.645 63.6974H313.691L315.522 59.4922H313.84ZM336.756 50.5128C336.756 45.145 333.565 44.3287 330.3 44.3287H328.667V56.7217H330.3C333.565 56.7217 336.756 55.9301 336.756 50.5128ZM325.13 41.5582H330.448C336.138 41.5582 340.417 43.3887 340.417 50.5128C340.417 57.6369 336.138 59.4922 330.448 59.4922H325.13V41.5582ZM342.142 41.5582H345.68V51.9228C345.68 55.0891 346.323 56.9938 349.588 56.9938C352.853 56.9938 353.447 55.0891 353.447 51.9228V41.5582H356.984V51.8981C356.984 57.8101 354.832 59.8138 349.588 59.8138C344.344 59.8138 342.142 57.8101 342.142 51.8981V41.5582ZM359.433 59.4922V41.5582H366.409C369.551 41.5582 372.94 42.5477 372.94 46.2334C372.94 47.9155 371.826 49.4244 370.911 50.0181C372.296 50.686 373.583 51.7249 373.583 54.1986C373.583 58.0575 370.392 59.4922 366.706 59.4922H359.433ZM362.971 51.626V56.7217H366.879C368.957 56.7217 369.971 55.8559 369.971 54.1986C369.971 52.5165 368.932 51.626 366.731 51.626H362.971ZM362.971 44.3287V48.9544H366.632C368.314 48.9544 369.303 48.1629 369.303 46.5797C369.303 45.1697 368.289 44.3287 366.632 44.3287H362.971ZM373.757 59.4922L380.436 41.5582H383.998L390.702 59.4922H386.868L385.606 55.8559H378.631L377.369 59.4922H373.757ZM382.118 45.8871L379.645 52.9617H384.592L382.118 45.8871ZM395.342 41.5582V59.4922H391.804V41.5582H395.342Z" fill="white"/>
<path d="M43.5962 12.3997L47.1496 18.7565L52.8652 14.2434L53.7155 21.4762L60.7231 19.4939L58.7408 26.5015L65.9736 27.3518L61.4605 33.0674L67.8173 36.6208L61.4605 40.1743L65.9736 45.8899L58.7408 46.7402L60.7231 53.7478L53.7155 51.7655L52.8652 58.9983L47.1496 54.4852L43.5962 60.842L40.0427 54.4852L34.3271 58.9983L33.4768 51.7655L26.4692 53.7478L28.4515 46.7402L21.2187 45.8899L25.7318 40.1743L19.375 36.6208L25.7318 33.0674L21.2187 27.3518L28.4515 26.5015L26.4692 19.4939L33.4768 21.4762L34.3271 14.2434L40.0427 18.7565L43.5962 12.3997Z" fill="#F97129"/>
</svg>
