<svg width="722" height="75" viewBox="0 0 722 75" fill="none" xmlns="http://www.w3.org/2000/svg">
<mask id="path-1-inside-1_2036_10329" fill="white">
<path fill-rule="evenodd" clip-rule="evenodd" d="M0.898438 15.3409C0.898438 6.86836 7.76678 0 16.2393 0H104.449C112.922 0 119.79 6.86835 119.79 15.3409V16.3703C119.79 19.332 122.191 21.7329 125.153 21.7329C128.115 21.7329 130.515 19.332 130.515 16.3703V15.3409C130.515 6.86836 137.384 0 145.856 0H193.157C201.63 0 208.498 6.86835 208.498 15.3409V16.3727C208.498 19.333 210.898 21.7329 213.859 21.7329C216.819 21.7329 219.219 19.333 219.219 16.3727V15.3409C219.219 6.86836 226.087 0 234.56 0H334.275C342.748 0 349.616 6.86835 349.616 15.3409V16.627C349.616 19.4469 351.902 21.7329 354.722 21.7329C357.542 21.7329 359.828 19.4469 359.828 16.627V15.3409C359.828 6.86836 366.696 0 375.169 0H458.602C467.074 0 473.943 6.86835 473.943 15.3409V16.7941C473.943 19.5217 476.154 21.7329 478.882 21.7329C481.609 21.7329 483.82 19.5217 483.82 16.7941V15.3409C483.82 6.86836 490.689 0 499.161 0H706.51C714.983 0 721.851 6.86835 721.851 15.3409V58.8686C721.851 67.3412 714.983 74.2095 706.51 74.2095H499.161C490.689 74.2095 483.82 67.3412 483.82 58.8686V56.075C483.82 53.3474 481.609 51.1363 478.882 51.1363C476.154 51.1363 473.943 53.3474 473.943 56.075V58.8686C473.943 67.3412 467.074 74.2095 458.602 74.2095H375.169C366.696 74.2095 359.828 67.3412 359.828 58.8686V56.2422C359.828 53.4223 357.542 51.1363 354.722 51.1363C351.902 51.1363 349.616 53.4223 349.616 56.2422V58.8067C349.616 67.2792 342.748 74.1476 334.275 74.1476H234.56C226.087 74.1476 219.219 67.2792 219.219 58.8067V56.4965C219.219 53.5361 216.819 51.1363 213.859 51.1363C210.898 51.1363 208.498 53.5361 208.498 56.4965V58.8067C208.498 67.2792 201.63 74.1476 193.157 74.1476H145.856C137.384 74.1476 130.515 67.2792 130.515 58.8067V56.4989C130.515 53.5372 128.115 51.1363 125.153 51.1363C122.191 51.1363 119.79 53.5372 119.79 56.4989V58.8067C119.79 67.2792 112.922 74.1476 104.449 74.1476H16.2393C7.76678 74.1476 0.898438 67.2792 0.898438 58.8067V15.3409Z"/>
</mask>
<path fill-rule="evenodd" clip-rule="evenodd" d="M0.898438 15.3409C0.898438 6.86836 7.76678 0 16.2393 0H104.449C112.922 0 119.79 6.86835 119.79 15.3409V16.3703C119.79 19.332 122.191 21.7329 125.153 21.7329C128.115 21.7329 130.515 19.332 130.515 16.3703V15.3409C130.515 6.86836 137.384 0 145.856 0H193.157C201.63 0 208.498 6.86835 208.498 15.3409V16.3727C208.498 19.333 210.898 21.7329 213.859 21.7329C216.819 21.7329 219.219 19.333 219.219 16.3727V15.3409C219.219 6.86836 226.087 0 234.56 0H334.275C342.748 0 349.616 6.86835 349.616 15.3409V16.627C349.616 19.4469 351.902 21.7329 354.722 21.7329C357.542 21.7329 359.828 19.4469 359.828 16.627V15.3409C359.828 6.86836 366.696 0 375.169 0H458.602C467.074 0 473.943 6.86835 473.943 15.3409V16.7941C473.943 19.5217 476.154 21.7329 478.882 21.7329C481.609 21.7329 483.82 19.5217 483.82 16.7941V15.3409C483.82 6.86836 490.689 0 499.161 0H706.51C714.983 0 721.851 6.86835 721.851 15.3409V58.8686C721.851 67.3412 714.983 74.2095 706.51 74.2095H499.161C490.689 74.2095 483.82 67.3412 483.82 58.8686V56.075C483.82 53.3474 481.609 51.1363 478.882 51.1363C476.154 51.1363 473.943 53.3474 473.943 56.075V58.8686C473.943 67.3412 467.074 74.2095 458.602 74.2095H375.169C366.696 74.2095 359.828 67.3412 359.828 58.8686V56.2422C359.828 53.4223 357.542 51.1363 354.722 51.1363C351.902 51.1363 349.616 53.4223 349.616 56.2422V58.8067C349.616 67.2792 342.748 74.1476 334.275 74.1476H234.56C226.087 74.1476 219.219 67.2792 219.219 58.8067V56.4965C219.219 53.5361 216.819 51.1363 213.859 51.1363C210.898 51.1363 208.498 53.5361 208.498 56.4965V58.8067C208.498 67.2792 201.63 74.1476 193.157 74.1476H145.856C137.384 74.1476 130.515 67.2792 130.515 58.8067V56.4989C130.515 53.5372 128.115 51.1363 125.153 51.1363C122.191 51.1363 119.79 53.5372 119.79 56.4989V58.8067C119.79 67.2792 112.922 74.1476 104.449 74.1476H16.2393C7.76678 74.1476 0.898438 67.2792 0.898438 58.8067V15.3409Z" fill="white"/>
<path d="M16.2393 -2C6.66221 -2 -1.10156 5.7638 -1.10156 15.3409H2.89844C2.89844 7.97293 8.87135 2 16.2393 2V-2ZM104.449 -2H16.2393V2H104.449V-2ZM121.79 15.3409C121.79 5.76378 114.026 -2 104.449 -2V2C111.817 2 117.79 7.97291 117.79 15.3409H121.79ZM121.79 16.3703V15.3409H117.79V16.3703H121.79ZM128.515 15.3409V16.3703H132.515V15.3409H128.515ZM145.856 -2C136.279 -2 128.515 5.7638 128.515 15.3409H132.515C132.515 7.97293 138.488 2 145.856 2V-2ZM193.157 -2H145.856V2H193.157V-2ZM210.498 15.3409C210.498 5.76378 202.735 -2 193.157 -2V2C200.525 2 206.498 7.97291 206.498 15.3409H210.498ZM210.498 16.3727V15.3409H206.498V16.3727H210.498ZM217.219 15.3409V16.3727H221.219V15.3409H217.219ZM234.56 -2C224.983 -2 217.219 5.7638 217.219 15.3409H221.219C221.219 7.97293 227.192 2 234.56 2V-2ZM334.275 -2H234.56V2H334.275V-2ZM351.616 15.3409C351.616 5.76378 343.852 -2 334.275 -2V2C341.643 2 347.616 7.97292 347.616 15.3409H351.616ZM351.616 16.627V15.3409H347.616V16.627H351.616ZM357.828 15.3409V16.627H361.828V15.3409H357.828ZM375.169 -2C365.592 -2 357.828 5.76379 357.828 15.3409H361.828C361.828 7.97293 367.801 2 375.169 2V-2ZM458.602 -2H375.169V2H458.602V-2ZM475.943 15.3409C475.943 5.76378 468.179 -2 458.602 -2V2C465.97 2 471.943 7.97291 471.943 15.3409H475.943ZM475.943 16.7941V15.3409H471.943V16.7941H475.943ZM485.82 16.7941V15.3409H481.82V16.7941H485.82ZM485.82 15.3409C485.82 7.97293 491.793 2 499.161 2V-2C489.584 -2 481.82 5.76379 481.82 15.3409H485.82ZM499.161 2H706.51V-2H499.161V2ZM706.51 2C713.878 2 719.851 7.97292 719.851 15.3409H723.851C723.851 5.76378 716.087 -2 706.51 -2V2ZM719.851 15.3409V58.8686H723.851V15.3409H719.851ZM719.851 58.8686C719.851 66.2366 713.878 72.2095 706.51 72.2095V76.2095C716.087 76.2095 723.851 68.4457 723.851 58.8686H719.851ZM706.51 72.2095H499.161V76.2095H706.51V72.2095ZM499.161 72.2095C491.793 72.2095 485.82 66.2366 485.82 58.8686H481.82C481.82 68.4457 489.584 76.2095 499.161 76.2095V72.2095ZM485.82 58.8686V56.075H481.82V58.8686H485.82ZM475.943 58.8686V56.075H471.943V58.8686H475.943ZM458.602 76.2095C468.179 76.2095 475.943 68.4457 475.943 58.8686H471.943C471.943 66.2366 465.97 72.2095 458.602 72.2095V76.2095ZM375.169 76.2095H458.602V72.2095H375.169V76.2095ZM357.828 58.8686C357.828 68.4457 365.592 76.2095 375.169 76.2095V72.2095C367.801 72.2095 361.828 66.2366 361.828 58.8686H357.828ZM357.828 56.2422V58.8686H361.828V56.2422H357.828ZM351.616 58.8067V56.2422H347.616V58.8067H351.616ZM334.275 76.1476C343.852 76.1476 351.616 68.3838 351.616 58.8067H347.616C347.616 66.1746 341.643 72.1476 334.275 72.1476V76.1476ZM234.56 76.1476H334.275V72.1476H234.56V76.1476ZM217.219 58.8067C217.219 68.3838 224.983 76.1476 234.56 76.1476V72.1476C227.192 72.1476 221.219 66.1747 221.219 58.8067H217.219ZM217.219 56.4965V58.8067H221.219V56.4965H217.219ZM210.498 58.8067V56.4965H206.498V58.8067H210.498ZM193.157 76.1476C202.734 76.1476 210.498 68.3838 210.498 58.8067H206.498C206.498 66.1747 200.525 72.1476 193.157 72.1476V76.1476ZM145.856 76.1476H193.157V72.1476H145.856V76.1476ZM128.515 58.8067C128.515 68.3838 136.279 76.1476 145.856 76.1476V72.1476C138.488 72.1476 132.515 66.1747 132.515 58.8067H128.515ZM128.515 56.4989V58.8067H132.515V56.4989H128.515ZM121.79 58.8067V56.4989H117.79V58.8067H121.79ZM104.449 76.1476C114.026 76.1476 121.79 68.3838 121.79 58.8067H117.79C117.79 66.1746 111.817 72.1476 104.449 72.1476V76.1476ZM16.2393 76.1476H104.449V72.1476H16.2393V76.1476ZM-1.10156 58.8067C-1.10156 68.3838 6.66221 76.1476 16.2393 76.1476V72.1476C8.87135 72.1476 2.89844 66.1747 2.89844 58.8067H-1.10156ZM-1.10156 15.3409V58.8067H2.89844V15.3409H-1.10156ZM221.219 56.4965C221.219 52.4316 217.923 49.1363 213.859 49.1363V53.1363C215.714 53.1363 217.219 54.6407 217.219 56.4965H221.219ZM478.882 23.7329C482.714 23.7329 485.82 20.6263 485.82 16.7941H481.82C481.82 18.4172 480.505 19.7329 478.882 19.7329V23.7329ZM354.722 23.7329C358.647 23.7329 361.828 20.5515 361.828 16.627H357.828C357.828 18.3423 356.438 19.7329 354.722 19.7329V23.7329ZM361.828 56.2422C361.828 52.3177 358.647 49.1363 354.722 49.1363V53.1363C356.438 53.1363 357.828 54.5268 357.828 56.2422H361.828ZM125.153 49.1363C121.087 49.1363 117.79 52.4326 117.79 56.4989H121.79C121.79 54.6418 123.296 53.1363 125.153 53.1363V49.1363ZM125.153 23.7329C129.219 23.7329 132.515 20.4366 132.515 16.3703H128.515C128.515 18.2274 127.01 19.7329 125.153 19.7329V23.7329ZM354.722 49.1363C350.798 49.1363 347.616 52.3177 347.616 56.2422H351.616C351.616 54.5268 353.007 53.1363 354.722 53.1363V49.1363ZM347.616 16.627C347.616 20.5515 350.798 23.7329 354.722 23.7329V19.7329C353.007 19.7329 351.616 18.3423 351.616 16.627H347.616ZM206.498 16.3727C206.498 20.4376 209.794 23.7329 213.859 23.7329V19.7329C212.003 19.7329 210.498 18.2285 210.498 16.3727H206.498ZM478.882 49.1363C475.049 49.1363 471.943 52.2429 471.943 56.075H475.943C475.943 54.452 477.259 53.1363 478.882 53.1363V49.1363ZM213.859 49.1363C209.794 49.1363 206.498 52.4316 206.498 56.4965H210.498C210.498 54.6407 212.003 53.1363 213.859 53.1363V49.1363ZM471.943 16.7941C471.943 20.6263 475.049 23.7329 478.882 23.7329V19.7329C477.259 19.7329 475.943 18.4172 475.943 16.7941H471.943ZM213.859 23.7329C217.923 23.7329 221.219 20.4376 221.219 16.3727H217.219C217.219 18.2285 215.714 19.7329 213.859 19.7329V23.7329ZM485.82 56.075C485.82 52.2428 482.714 49.1363 478.882 49.1363V53.1363C480.505 53.1363 481.82 54.452 481.82 56.075H485.82ZM132.515 56.4989C132.515 52.4326 129.219 49.1363 125.153 49.1363V53.1363C127.01 53.1363 128.515 54.6418 128.515 56.4989H132.515ZM117.79 16.3703C117.79 20.4366 121.087 23.7329 125.153 23.7329V19.7329C123.296 19.7329 121.79 18.2274 121.79 16.3703H117.79Z" fill="black" mask="url(#path-1-inside-1_2036_10329)"/>
<path d="M32.2283 50.2896V27.7551H23.9281V23.8962H45.152V27.7551H36.8517V50.2896H32.2283ZM64.4746 23.8962H69.098V50.2896H64.4746V38.6401H51.8786V50.2896H47.2552V23.8962H51.8786V34.8176H64.4746V23.8962ZM78.3118 23.8962V50.2896H73.6884V23.8962H78.3118ZM92.744 38.9313L89.5404 38.3124C85.3538 37.4387 81.9318 35.3272 81.9318 30.8495C81.9318 25.9348 87.0649 23.4229 91.9067 23.4229C97.1489 23.4229 101.19 25.7892 102.246 31.2863H97.7678C97.0033 28.1191 94.273 27.209 91.6518 27.209C89.6132 27.209 86.5916 28.1191 86.5916 30.7038C86.5916 32.7425 88.2298 33.7618 90.5233 34.1987L93.7633 34.8176C98.3867 35.6913 102.792 37.4387 102.792 42.7174C102.792 48.0689 97.513 50.7628 92.3071 50.7628C86.0091 50.7628 81.7862 47.3772 81.2037 41.5524H85.7543C86.5916 45.1929 88.8851 46.9767 92.5256 46.9767C95.6564 46.9767 98.1683 45.5569 98.1683 43.0086C98.1683 40.2783 95.2559 39.4046 92.744 38.9313Z" fill="black"/>
<path d="M161.623 23.8962V50.2896H156.999V23.8962H161.623ZM176.055 38.9313L172.851 38.3124C168.665 37.4387 165.243 35.3272 165.243 30.8495C165.243 25.9348 170.376 23.4229 175.217 23.4229C180.46 23.4229 184.501 25.7892 185.556 31.2863H181.079C180.314 28.1191 177.584 27.209 174.963 27.209C172.924 27.209 169.902 28.1191 169.902 30.7038C169.902 32.7425 171.541 33.7618 173.834 34.1987L177.074 34.8176C181.697 35.6913 186.102 37.4387 186.102 42.7174C186.102 48.0689 180.824 50.7628 175.618 50.7628C169.32 50.7628 165.097 47.3772 164.514 41.5524H169.065C169.902 45.1929 172.196 46.9767 175.836 46.9767C178.967 46.9767 181.479 45.5569 181.479 43.0086C181.479 40.2783 178.567 39.4046 176.055 38.9313Z" fill="black"/>
<path d="M249.96 50.9762C244.135 50.9762 240.895 47.2993 240.895 41.5838H245.482C245.482 45.2607 247.084 47.1901 249.96 47.1901C252.763 47.1901 254.365 45.2607 254.365 41.5838V24.1095H258.988V41.5838C258.988 47.2993 255.748 50.9762 249.96 50.9762ZM263.177 24.1095H267.8V39.6907C267.8 44.5326 269.074 47.1901 273.989 47.1901C278.831 47.1901 280.142 44.3869 280.142 39.5451V24.1095H284.765V39.3631C284.765 47.6998 281.671 50.9762 273.989 50.9762C266.417 50.9762 263.177 48.0274 263.177 39.5087V24.1095ZM298.773 39.1447L295.57 38.5258C291.383 37.6521 287.961 35.5406 287.961 31.0628C287.961 26.1482 293.094 23.6363 297.936 23.6363C303.178 23.6363 307.219 26.0026 308.275 31.4997H303.797C303.033 28.3325 300.302 27.4224 297.681 27.4224C295.643 27.4224 292.621 28.3325 292.621 30.9172C292.621 32.9559 294.259 33.9752 296.553 34.4121L299.793 35.0309C304.416 35.9047 308.821 37.6521 308.821 42.9308C308.821 48.2822 303.542 50.9762 298.336 50.9762C292.038 50.9762 287.815 47.5906 287.233 41.7658H291.784C292.621 45.4063 294.914 47.1901 298.555 47.1901C301.686 47.1901 304.198 45.7703 304.198 43.222C304.198 40.4916 301.285 39.6179 298.773 39.1447ZM317.22 50.5029V27.9684H308.92V24.1095H330.144V27.9684H321.844V50.5029H317.22Z" fill="black"/>
<path d="M388.079 50.5031V27.9686H379.778V24.1097H401.002V27.9686H392.702V50.5031H388.079ZM420.325 24.1097H424.948V50.5031H420.325V38.8536H407.729V50.5031H403.106V24.1097H407.729V35.0311H420.325V24.1097ZM429.539 50.5031V24.1097H448.214V27.9686H434.162V35.0311H447.45V38.8536H434.162V46.6078H448.214V50.5031H429.539Z" fill="black"/>
<path d="M506.119 50.5029V24.1095H516.058C520.863 24.1095 525.559 25.4201 525.559 30.8444C525.559 33.3199 524.176 35.5042 522.61 36.4871C524.795 37.4701 526.579 39.1811 526.579 42.6759C526.579 48.3551 522.101 50.5029 516.713 50.5029H506.119ZM510.743 38.6714V46.7897H516.895C520.208 46.7897 521.81 45.2971 521.81 42.6759C521.81 39.9456 520.171 38.6714 516.64 38.6714H510.743ZM510.743 27.8228V35.1402H516.494C519.225 35.1402 520.863 33.9752 520.863 31.3541C520.863 29.0242 519.116 27.8228 516.494 27.8228H510.743ZM529.673 50.5029V24.1095H548.348V27.9684H534.296V35.0309H547.584V38.8534H534.296V46.6076H548.348V50.5029H529.673ZM563.026 23.6363C568.96 23.6363 573.037 26.8399 574.166 32.4826H569.761C568.887 29.2426 566.412 27.4224 562.917 27.4224C558.403 27.4224 555.126 30.7352 555.126 37.2152C555.126 43.6224 558.221 47.1901 562.881 47.1901C566.011 47.1901 569.943 45.8067 569.943 41.1105V40.6009H563.208V36.7056H574.239V50.5029H570.598L570.453 47.3357C568.887 49.6656 566.011 50.9762 562.371 50.9762C554.872 50.9762 550.357 45.5155 550.357 37.2152C550.357 29.0242 555.163 23.6363 563.026 23.6363ZM583.11 24.1095V50.5029H578.486V24.1095H583.11ZM609.555 50.5029H603.367L592.19 29.4246V50.5029H587.713V24.1095H593.901L605.078 45.1878V24.1095H609.555V50.5029ZM635.989 50.5029H629.8L618.624 29.4246V50.5029H614.146V24.1095H620.335L631.511 45.1878V24.1095H635.989V50.5029ZM645.202 24.1095V50.5029H640.579V24.1095H645.202ZM671.648 50.5029H665.459L654.283 29.4246V50.5029H649.805V24.1095H655.994L667.17 45.1878V24.1095H671.648V50.5029ZM687.852 23.6363C693.785 23.6363 697.863 26.8399 698.991 32.4826H694.586C693.713 29.2426 691.237 27.4224 687.742 27.4224C683.228 27.4224 679.952 30.7352 679.952 37.2152C679.952 43.6224 683.046 47.1901 687.706 47.1901C690.837 47.1901 694.768 45.8067 694.768 41.1105V40.6009H688.034V36.7056H699.064V50.5029H695.424L695.278 47.3357C693.713 49.6656 690.837 50.9762 687.196 50.9762C679.697 50.9762 675.183 45.5155 675.183 37.2152C675.183 29.0242 679.988 23.6363 687.852 23.6363Z" fill="black"/>
</svg>
