<svg width="174" height="41" viewBox="0 0 174 41" fill="none" xmlns="http://www.w3.org/2000/svg">
<path d="M0.475564 23.3108V0.821619H17.8701C23.1022 0.821619 25.9833 2.68123 25.9833 6.19826V6.40042C25.9833 9.18983 24.4568 10.5245 21.7733 10.9287V11.9453C24.507 12.3945 26.9739 13.5798 26.9739 16.8416V16.9895C26.9739 21.0822 24.2024 23.3108 18.4936 23.3108H0.475564ZM15.3523 9.76898C17.391 9.76898 18.3064 9.01017 18.3064 7.65248V7.45274C18.3064 6.25478 17.6127 5.41623 15.3523 5.41623H7.65735V9.76898H15.3523ZM15.178 18.7163C17.3453 18.7163 18.5539 17.9967 18.5539 16.4778V16.1581C18.5539 14.8434 17.9486 13.8799 15.178 13.8799H7.65735V18.7163H15.178Z" fill="black" fill-opacity="0.35"/>
<path d="M124.095 23.5552H115.989V0.821619H123.499V13.7773H124.368L133.856 0.821619H142.525V23.5552H134.764V10.3551H133.871L124.095 23.5552Z" fill="black" fill-opacity="0.35"/>
<path fill-rule="evenodd" clip-rule="evenodd" d="M84.977 11.8696C84.977 20.828 91.5541 23.7932 99.6301 23.7932C105.625 23.7932 113.289 22.0304 113.459 14.0219H105.682C105.143 17.6145 102.085 18.5756 99.4137 18.5756C95.2601 18.5756 92.7942 16.1385 92.7942 11.9493C92.7942 8.22998 94.7883 5.67435 99.29 5.67435C103.679 5.67435 104.985 7.56298 105.448 9.37737H113.252C113.181 7.42462 111.602 0.464302 99.4137 0.464302C86.915 0.464302 84.977 7.75888 84.977 11.8696Z" fill="black" fill-opacity="0.35"/>
<path fill-rule="evenodd" clip-rule="evenodd" d="M145.184 11.8696C145.184 20.828 151.761 23.7932 159.838 23.7932C165.832 23.7932 173.496 22.0304 173.667 14.0219H165.889C165.351 17.6145 162.293 18.5756 159.621 18.5756C155.468 18.5756 153.002 16.1385 153.002 11.9493C153.002 8.22998 154.996 5.67435 159.497 5.67435C163.887 5.67435 165.193 7.56298 165.655 9.37737H173.46C173.389 7.42462 171.81 0.464302 159.621 0.464302C147.122 0.464302 145.184 7.75888 145.184 11.8696Z" fill="black" fill-opacity="0.35"/>
<path fill-rule="evenodd" clip-rule="evenodd" d="M68.6747 23.3108V14.2662H70.6263L78.9962 23.3108H87.2108L76.6856 11.8737V10.8464L86.6693 0.821619H78.0549L70.7753 8.64393H68.6747V0.821619H61.1645V23.3108H68.6747Z" fill="black" fill-opacity="0.35"/>
<path d="M37.0353 10.7611C37.4469 8.04527 39.201 5.95554 43.626 5.95554H44.0731C48.3884 5.95554 50.2018 8.19245 50.6185 10.7611H58.6263C58.3826 6.69866 56.295 0.333252 44.5854 0.333252H43.2308C32.0776 0.333252 29.5265 6.63875 29.1638 10.7611H37.0353Z" fill="black" fill-opacity="0.35"/>
<path d="M50.7248 12.3571C50.6 15.3021 48.8969 18.4208 44.0894 18.4208H43.6422C38.5773 18.4208 37.0111 15.6396 36.9529 12.3571H29.13V12.4463C29.13 16.4978 31.0176 23.7986 43.2884 23.7986H44.5603C57.2048 23.7986 58.6617 16.3766 58.6699 12.3571H50.7248Z" fill="black" fill-opacity="0.35"/>
<path d="M171.038 36.1454H169.243L166.477 38.9484H163.62L166.649 35.8906C165.003 35.669 164.066 34.8602 164.066 33.4643V33.3535C164.066 31.8578 165.266 30.7056 167.643 30.7056H173.392V38.9484H171.038V36.1454ZM171.038 34.3174V32.5226H167.723C166.98 32.5226 166.534 32.7996 166.534 33.3978V33.4311C166.534 34.0736 167.06 34.3174 167.723 34.3174H171.038Z" fill="black" fill-opacity="0.35"/>
<path d="M159.811 38.9484V33.4089L154.839 38.9484H152.484V30.7056H154.839V36.2451L159.811 30.7056H162.165V38.9484H159.811Z" fill="black" fill-opacity="0.35"/>
<path d="M148.029 38.9484V35.6358H143.286V38.9484H140.931V30.7056H143.286V33.7634H148.029V30.7056H150.384V38.9484H148.029Z" fill="black" fill-opacity="0.35"/>
<path d="M131.198 30.7056H138.982V32.5004H133.518V33.841H138.811V35.7022H133.518V37.1314H139.051V38.9484H131.198V30.7056Z" fill="black" fill-opacity="0.35"/>
<path d="M116.453 38.9484V30.7056H118.807V37.1314H121.596V30.7056H123.951V37.1314H126.74V30.7056H129.094V38.9484H116.453Z" fill="black" fill-opacity="0.35"/>
<path d="M106.72 30.7056H114.504V32.5004H109.04V33.841H114.332V35.7022H109.04V37.1314H114.572V38.9484H106.72V30.7056Z" fill="black" fill-opacity="0.35"/>
<path d="M101.553 36.3116H98.1466V38.9484H95.792V30.7056H101.553C104.239 30.7056 105.073 31.8468 105.073 33.4421V33.564C105.073 35.1261 104.216 36.3116 101.553 36.3116ZM98.1466 32.5447V34.4725H101.381C102.239 34.4725 102.627 34.118 102.627 33.5308V33.4865C102.627 32.9103 102.239 32.5447 101.381 32.5447H98.1466Z" fill="black" fill-opacity="0.35"/>
<path d="M82.7544 30.7056H90.5382V32.5004H85.0747V33.841H90.3668V35.7022H85.0747V37.1314H90.6068V38.9484H82.7544V30.7056Z" fill="black" fill-opacity="0.35"/>
<path d="M70.4197 30.7056V33.3646H73.883C76.5233 33.3646 77.3462 34.5168 77.3462 36.0789V36.2008C77.3462 37.7629 76.489 38.9484 73.883 38.9484H68.0651V30.7056H70.4197ZM70.4197 37.1314H73.7001C74.5002 37.1314 74.9002 36.7437 74.9002 36.1786V36.1011C74.9002 35.5471 74.5002 35.1815 73.7001 35.1815H70.4197V37.1314ZM80.6495 30.7056V38.9484H78.2949V30.7056H80.6495Z" fill="black" fill-opacity="0.35"/>
<path d="M56.7467 38.9484V30.7056H62.9532C65.3878 30.7056 65.9936 31.736 65.9936 32.6555V32.7774C65.9936 33.8077 65.0678 34.3285 64.4277 34.406C65.3878 34.539 66.4165 35.1261 66.4165 36.4445V36.5664C66.4165 37.6854 65.7193 38.9484 62.9875 38.9484H56.7467ZM62.6103 32.4229H59.1013V33.8964H62.6103C63.319 33.8964 63.5361 33.564 63.5361 33.1762V33.1541C63.5361 32.7552 63.3075 32.4229 62.6103 32.4229ZM62.7932 35.5139H59.1013V37.1425H62.7932C63.6276 37.1425 63.8562 36.7326 63.8562 36.3116V36.2673C63.8562 35.8573 63.6276 35.5139 62.7932 35.5139Z" fill="black" fill-opacity="0.35"/>
<path d="M49.4127 30.5725H49.9156C53.8933 30.5725 55.0248 32.8436 55.0248 34.6384V34.9708C55.0248 36.7434 53.8933 39.0811 49.9156 39.0811H49.4127C45.4351 39.0811 44.3035 36.7434 44.3035 34.9708V34.6384C44.3035 32.8436 45.4351 30.5725 49.4127 30.5725ZM52.5788 34.7271C52.5788 33.7078 52.0645 32.4559 49.6642 32.4559C47.2867 32.4559 46.7495 33.7078 46.7495 34.7271V34.8822C46.7495 35.8793 47.321 37.1866 49.6642 37.1866C52.053 37.1866 52.5788 35.8793 52.5788 34.8822V34.7271Z" fill="black" fill-opacity="0.35"/>
<path d="M39.5135 36.3116H36.1073V38.9484H33.7528V30.7056H39.5135C42.1995 30.7056 43.0339 31.8468 43.0339 33.4421V33.564C43.0339 35.1261 42.1767 36.3116 39.5135 36.3116ZM36.1073 32.5447V34.4725H39.342C40.1993 34.4725 40.5879 34.118 40.5879 33.5308V33.4865C40.5879 32.9103 40.1993 32.5447 39.342 32.5447H36.1073Z" fill="black" fill-opacity="0.35"/>
<path d="M21.9762 37.1314C22.5592 36.09 22.9249 34.5722 22.9249 30.7056H31.0402V37.1314H32.4118V40.3333H30.1715V38.9484H23.3593V40.3333H21.119V37.1314H21.9762ZM24.3651 37.1314H28.6856V32.5226H25.1652C25.1652 34.7605 24.7652 36.3559 24.3651 37.1314Z" fill="black" fill-opacity="0.35"/>
<path d="M18.2998 38.9484L17.6026 37.4195H13.0077L12.3219 38.9484H9.95593L13.7278 30.7056H16.8825L20.8258 38.9484H18.2998ZM13.7735 35.7244H16.8139L15.2709 32.3675L13.7735 35.7244Z" fill="black" fill-opacity="0.35"/>
<path d="M6.78001 38.9484L2.68807 35.0707V38.9484H0.333496V30.7056H2.68807V34.0958L6.66571 30.7056H9.66037L5.17981 34.4836L9.85468 38.9484H6.78001Z" fill="black" fill-opacity="0.35"/>
</svg>
