<svg width="1920" height="535" viewBox="0 0 1920 535" fill="none" xmlns="http://www.w3.org/2000/svg">
<path d="M-213.888 422.302L-267.541 475.956L-483.146 396.96L-435.63 349.444L-276.055 413.195L-339.608 253.422L-295.259 209.073L-213.888 422.302Z" fill="#1A1A1A" fill-opacity="0.1"/>
<path d="M-65.8732 123.424C-70.3608 118.936 -75.7064 115.042 -81.9099 111.743C-88.1134 108.179 -95.0428 106.265 -102.698 106.001C-110.354 105.737 -118.735 107.651 -127.842 111.743C-136.817 115.702 -146.519 122.896 -156.946 133.323C-167.241 143.618 -174.434 153.319 -178.526 162.426C-182.486 171.402 -184.4 179.783 -184.268 187.57C-184.004 195.226 -182.156 202.221 -178.724 208.557C-175.292 214.628 -171.333 219.908 -166.845 224.395L-164.073 227.167C-159.586 231.655 -154.174 235.615 -147.839 239.046C-141.635 242.346 -134.64 244.194 -126.852 244.59C-119.065 244.722 -110.618 242.874 -101.51 239.046C-92.271 235.087 -82.5699 228.025 -72.4067 217.862C-62.1115 207.567 -54.9841 197.8 -51.0244 188.56C-47.0647 179.321 -45.2169 170.874 -45.4809 163.218C-45.8768 155.431 -47.7907 148.502 -51.2224 142.43C-54.6541 136.095 -58.6138 130.683 -63.1014 126.195L-65.8732 123.424ZM-186.247 95.3098C-169.089 78.1512 -152.524 66.2062 -136.553 59.4747C-120.583 52.4793 -105.668 49.1796 -91.8091 49.5756C-78.0822 49.8395 -65.5432 52.8753 -54.1921 58.6829C-42.841 64.4904 -33.1399 71.4198 -25.0885 79.4712L-19.149 85.4106C-11.2296 93.33 -4.3002 103.031 1.63934 114.514C7.44687 125.865 10.6146 138.536 11.1425 152.527C11.5385 166.386 8.37079 181.433 1.63934 197.668C-5.09213 213.638 -17.0371 230.203 -34.1957 247.362L-42.907 256.073C-54.3901 267.556 -65.6092 276.663 -76.5643 283.395C-87.6514 289.994 -98.3426 294.746 -108.638 297.649C-118.801 300.421 -128.502 301.675 -137.741 301.411C-147.113 301.015 -155.89 299.497 -164.073 296.858C-172.257 293.954 -179.78 290.258 -186.643 285.77C-193.507 281.283 -199.578 276.399 -204.858 271.12L-210.797 265.18C-216.077 259.9 -220.961 253.829 -225.448 246.966C-229.936 240.102 -233.566 232.645 -236.337 224.593C-238.977 216.41 -240.429 207.699 -240.693 198.459C-241.089 189.088 -239.835 179.387 -236.931 169.356C-233.896 159.193 -229.012 148.634 -222.281 137.678C-215.549 126.723 -206.442 115.504 -194.959 104.021L-186.247 95.3098Z" fill="#1A1A1A" fill-opacity="0.1"/>
<path d="M108.286 4.30377L113.434 94.9803L65.5216 142.893L55.6224 3.11584L-80.7885 -5.39749L-29.1147 -57.0713L56.6123 -51.3297L50.6729 -136.859L97.595 -183.781L107.692 -49.7458L247.667 -39.2527L198.369 10.0453L108.286 4.30377Z" fill="#1A1A1A" fill-opacity="0.1"/>
<path d="M363.177 -154.762L322.392 -113.978L268.54 -167.829L102.036 -188.222L152.522 -238.708L255.077 -224.453L240.823 -327.008L286.359 -372.545L309.523 -208.416L363.177 -154.762Z" fill="#1A1A1A" fill-opacity="0.1"/>
<path d="M557.549 -442.187C562.96 -436.776 567.712 -430.308 571.804 -422.785C575.895 -415.261 577.611 -406.418 576.951 -396.255C576.423 -386.224 572.728 -374.609 565.864 -361.41C559.001 -348.475 547.32 -333.758 530.821 -317.259L525.079 -311.518C513.596 -300.035 502.905 -290.927 493.006 -284.196C483.107 -277.464 474 -272.581 465.684 -269.545C457.369 -266.509 449.714 -264.926 442.718 -264.794C435.855 -264.794 429.717 -265.651 424.306 -267.367C418.762 -269.215 413.878 -271.591 409.655 -274.495C405.563 -277.531 402.065 -280.5 399.162 -283.404L396.984 -285.582L441.332 -329.93C443.048 -328.478 445.49 -326.828 448.658 -324.981C451.825 -323.397 455.653 -322.605 460.141 -322.605C464.76 -322.737 470.106 -324.255 476.177 -327.158C482.381 -330.194 489.376 -335.606 497.164 -343.393L498.55 -344.779C506.205 -352.434 511.748 -359.034 515.18 -364.577C518.744 -370.253 520.922 -375.071 521.714 -379.03C522.506 -383.254 522.176 -386.752 520.724 -389.523C519.404 -392.427 517.688 -394.935 515.576 -397.047C513.464 -399.159 511.023 -400.677 508.251 -401.6C505.611 -402.656 502.575 -402.656 499.144 -401.6C495.58 -400.677 491.422 -398.631 486.671 -395.463C482.051 -392.427 476.573 -388.006 470.238 -382.198L450.044 -363.192C437.505 -351.445 425.956 -342.667 415.396 -336.86C404.837 -331.316 395.136 -327.95 386.293 -326.763C377.449 -325.839 369.464 -326.828 362.337 -329.732C355.209 -332.636 348.874 -336.86 343.33 -342.403L341.548 -344.185C335.873 -349.861 331.319 -356.262 327.887 -363.39C324.588 -370.649 323.598 -378.898 324.918 -388.138C326.238 -397.641 330.461 -408.332 337.589 -420.211C344.716 -432.09 355.935 -445.685 371.246 -460.996L377.977 -467.727C394.212 -483.962 408.599 -495.577 421.138 -502.572C433.545 -509.7 444.434 -513.725 453.805 -514.649C463.177 -515.837 471.228 -514.649 477.959 -511.086C484.559 -507.654 490.3 -503.496 495.184 -498.613L497.362 -496.435L453.607 -452.68C451.759 -454 449.516 -455.188 446.876 -456.244C444.104 -457.432 440.738 -457.63 436.779 -456.838C432.819 -456.31 428.199 -454.462 422.92 -451.294C417.64 -448.127 411.437 -442.979 404.309 -435.852L402.329 -433.872C395.73 -427.272 390.648 -421.531 387.085 -416.647C383.521 -412.028 381.145 -407.936 379.957 -404.372C378.637 -400.94 378.373 -397.905 379.165 -395.265C379.825 -392.757 381.145 -390.513 383.125 -388.533C384.973 -386.686 387.151 -385.3 389.658 -384.376C392.034 -383.584 394.872 -383.65 398.172 -384.574C401.471 -385.498 405.365 -387.412 409.853 -390.315C414.34 -393.219 419.62 -397.443 425.692 -402.986L446.876 -422.587C460.471 -435.126 472.68 -444.431 483.503 -450.502C494.194 -456.706 503.895 -460.336 512.606 -461.392C521.186 -462.579 528.973 -461.524 535.969 -458.224C542.832 -455.056 549.234 -450.502 555.173 -444.563L557.549 -442.187Z" fill="#1A1A1A" fill-opacity="0.1"/>
<path d="M60.2706 657.542L6.61691 711.196L-208.988 632.2L-161.471 584.684L-1.89639 648.435L-65.4492 488.662L-21.1008 444.314L60.2706 657.542Z" fill="#1A1A1A" fill-opacity="0.1"/>
<path d="M208.285 358.664C203.798 354.176 198.452 350.283 192.249 346.983C186.045 343.419 179.116 341.505 171.46 341.241C163.805 340.977 155.424 342.891 146.316 346.983C137.341 350.943 127.64 358.136 117.213 368.563C106.917 378.858 99.7241 388.559 95.6324 397.667C91.6727 406.642 89.7589 415.023 89.8909 422.811C90.1548 430.466 92.0027 437.461 95.4344 443.797C98.8661 449.868 102.826 455.148 107.313 459.636L110.085 462.407C114.573 466.895 119.984 470.855 126.32 474.287C132.523 477.586 139.519 479.434 147.306 479.83C155.094 479.962 163.541 478.114 172.648 474.287C181.887 470.327 191.589 463.265 201.752 453.102C212.047 442.807 219.174 433.04 223.134 423.801C227.094 414.561 228.942 406.114 228.678 398.459C228.282 390.671 226.368 383.742 222.936 377.67C219.504 371.335 215.545 365.923 211.057 361.436L208.285 358.664ZM87.911 330.55C105.07 313.392 121.634 301.446 137.605 294.715C153.576 287.72 168.49 284.42 182.349 284.816C196.076 285.08 208.615 288.116 219.966 293.923C231.317 299.731 241.019 306.66 249.07 314.711L255.009 320.651C262.929 328.57 269.858 338.272 275.798 349.755C281.605 361.106 284.773 373.777 285.301 387.768C285.697 401.626 282.529 416.673 275.798 432.908C269.066 448.879 257.121 465.443 239.963 482.602L231.251 491.313C219.768 502.796 208.549 511.903 197.594 518.635C186.507 525.234 175.816 529.986 165.521 532.89C155.357 535.661 145.656 536.915 136.417 536.651C127.046 536.255 118.269 534.738 110.085 532.098C101.902 529.194 94.3784 525.498 87.515 521.011C80.6516 516.523 74.5801 511.64 69.3005 506.36L63.361 500.42C58.0814 495.141 53.1978 489.069 48.7102 482.206C44.2225 475.342 40.5928 467.885 37.821 459.834C35.1812 451.65 33.7294 442.939 33.4654 433.7C33.0694 424.329 34.3234 414.627 37.2271 404.596C40.2629 394.433 45.1464 383.874 51.8779 372.919C58.6093 361.964 67.7166 350.745 79.1997 339.261L87.911 330.55Z" fill="#1A1A1A" fill-opacity="0.1"/>
<path d="M382.445 239.544L387.592 330.221L339.68 378.133L329.781 238.356L193.37 229.843L245.044 178.169L330.771 183.911L324.831 98.3815L371.753 51.4594L381.851 185.494L521.825 195.988L472.527 245.286L382.445 239.544Z" fill="#1A1A1A" fill-opacity="0.1"/>
<path d="M637.335 80.4779L596.55 121.263L542.699 67.4109L376.194 47.0187L426.68 -3.46729L529.236 10.7875L514.981 -91.7681L560.517 -137.304L583.681 26.8243L637.335 80.4779Z" fill="#1A1A1A" fill-opacity="0.1"/>
<path d="M831.707 -206.947C837.119 -201.535 841.87 -195.068 845.962 -187.544C850.054 -180.021 851.77 -171.178 851.11 -161.015C850.582 -150.983 846.886 -139.368 840.023 -126.169C833.159 -113.234 821.478 -98.5176 804.979 -82.019L799.238 -76.2774C787.755 -64.7943 777.064 -55.6871 767.165 -48.9556C757.265 -42.2242 748.158 -37.3405 739.843 -34.3048C731.527 -31.269 723.872 -29.6852 716.877 -29.5532C710.013 -29.5532 703.876 -30.4111 698.464 -32.127C692.921 -33.9748 688.037 -36.3506 683.813 -39.2544C679.722 -42.2902 676.224 -45.2599 673.32 -48.1637L671.142 -50.3415L715.491 -94.6899C717.207 -93.238 719.648 -91.5882 722.816 -89.7404C725.984 -88.1565 729.812 -87.3645 734.299 -87.3645C738.919 -87.4965 744.264 -89.0144 750.336 -91.9182C756.539 -94.9539 763.535 -100.365 771.322 -108.153L772.708 -109.539C780.363 -117.194 785.907 -123.794 789.339 -129.337C792.902 -135.013 795.08 -139.83 795.872 -143.79C796.664 -148.014 796.334 -151.511 794.882 -154.283C793.562 -157.187 791.846 -159.695 789.735 -161.807C787.623 -163.918 785.181 -165.436 782.409 -166.36C779.77 -167.416 776.734 -167.416 773.302 -166.36C769.738 -165.436 765.581 -163.39 760.829 -160.223C756.209 -157.187 750.732 -152.765 744.396 -146.958L724.202 -127.951C711.663 -116.204 700.114 -107.427 689.555 -101.619C678.996 -96.0758 669.294 -92.7101 660.451 -91.5222C651.608 -90.5983 643.623 -91.5882 636.495 -94.4919C629.368 -97.3957 623.032 -101.619 617.489 -107.163L615.707 -108.945C610.031 -114.62 605.478 -121.022 602.046 -128.149C598.746 -135.409 597.756 -143.658 599.076 -152.897C600.396 -162.4 604.62 -173.092 611.747 -184.971C618.874 -196.85 630.094 -210.445 645.404 -225.755L652.136 -232.487C668.37 -248.721 682.757 -260.336 695.296 -267.332C707.703 -274.459 718.592 -278.485 727.964 -279.409C737.335 -280.597 745.386 -279.409 752.118 -275.845C758.717 -272.414 764.459 -268.256 769.342 -263.372L771.52 -261.194L727.766 -217.44C725.918 -218.76 723.674 -219.948 721.034 -221.004C718.262 -222.192 714.897 -222.39 710.937 -221.598C706.977 -221.07 702.358 -219.222 697.078 -216.054C691.799 -212.886 685.595 -207.739 678.468 -200.611L676.488 -198.632C669.888 -192.032 664.807 -186.29 661.243 -181.407C657.679 -176.787 655.304 -172.696 654.116 -169.132C652.796 -165.7 652.532 -162.664 653.324 -160.025C653.984 -157.517 655.303 -155.273 657.283 -153.293C659.131 -151.445 661.309 -150.059 663.817 -149.136C666.193 -148.344 669.03 -148.41 672.33 -149.333C675.63 -150.257 679.524 -152.171 684.011 -155.075C688.499 -157.979 693.778 -162.202 699.85 -167.746L721.034 -187.346C734.629 -199.885 746.838 -209.191 757.661 -215.262C768.352 -221.466 778.054 -225.095 786.765 -226.151C795.344 -227.339 803.132 -226.283 810.127 -222.984C816.99 -219.816 823.392 -215.262 829.332 -209.323L831.707 -206.947Z" fill="#1A1A1A" fill-opacity="0.1"/>
<path d="M334.429 892.783L280.775 946.436L65.1708 867.441L112.687 819.925L272.262 883.675L208.709 723.902L253.058 679.554L334.429 892.783Z" fill="#1A1A1A" fill-opacity="0.1"/>
<path d="M482.444 593.904C477.956 589.417 472.61 585.523 466.407 582.223C460.203 578.659 453.274 576.746 445.619 576.482C437.963 576.218 429.582 578.131 420.475 582.223C411.499 586.183 401.798 593.376 391.371 603.803C381.076 614.099 373.882 623.8 369.791 632.907C365.831 641.882 363.917 650.264 364.049 658.051C364.313 665.706 366.161 672.702 369.593 679.037C373.025 685.109 376.984 690.388 381.472 694.876L384.244 697.648C388.731 702.135 394.143 706.095 400.478 709.527C406.682 712.827 413.677 714.674 421.465 715.07C429.252 715.202 437.699 713.354 446.807 709.527C456.046 705.567 465.747 698.506 475.91 688.343C486.205 678.047 493.333 668.28 497.292 659.041C501.252 649.802 503.1 641.354 502.836 633.699C502.44 625.912 500.526 618.982 497.094 612.911C493.663 606.575 489.703 601.164 485.215 596.676L482.444 593.904ZM362.069 565.791C379.228 548.632 395.793 536.687 411.763 529.955C427.734 522.96 442.649 519.66 456.508 520.056C470.235 520.32 482.774 523.356 494.125 529.163C505.476 534.971 515.177 541.9 523.228 549.952L529.168 555.891C537.087 563.811 544.017 573.512 549.956 584.995C555.764 596.346 558.932 609.017 559.459 623.008C559.855 636.867 556.688 651.914 549.956 668.148C543.225 684.119 531.28 700.683 514.121 717.842L505.41 726.553C493.927 738.036 482.708 747.144 471.752 753.875C460.665 760.475 449.974 765.226 439.679 768.13C429.516 770.902 419.815 772.156 410.575 771.892C401.204 771.496 392.427 769.978 384.244 767.338C376.06 764.434 368.537 760.739 361.673 756.251C354.81 751.763 348.739 746.88 343.459 741.6L337.519 735.661C332.24 730.381 327.356 724.31 322.869 717.446C318.381 710.583 314.751 703.125 311.979 695.074C309.34 686.891 307.888 678.179 307.624 668.94C307.228 659.569 308.482 649.868 311.385 639.836C314.421 629.673 319.305 619.114 326.036 608.159C332.768 597.204 341.875 585.985 353.358 574.502L362.069 565.791Z" fill="#1A1A1A" fill-opacity="0.1"/>
<path d="M656.603 474.784L661.75 565.461L613.839 613.373L603.939 473.596L467.528 465.083L519.202 413.409L604.929 419.151L598.99 333.622L645.912 286.7L656.009 420.735L795.984 431.228L746.686 480.526L656.603 474.784Z" fill="#1A1A1A" fill-opacity="0.1"/>
<path d="M911.493 315.718L870.709 356.503L816.857 302.651L650.353 282.259L700.839 231.773L803.394 246.028L789.139 143.472L834.676 97.9359L857.84 262.065L911.493 315.718Z" fill="#1A1A1A" fill-opacity="0.1"/>
<path d="M1105.87 28.2935C1111.28 33.705 1116.03 40.1725 1120.12 47.6959C1124.21 55.2194 1125.93 64.0626 1125.27 74.2258C1124.74 84.257 1121.04 95.872 1114.18 109.071C1107.32 122.006 1095.64 136.723 1079.14 153.221L1073.4 158.963C1061.91 170.446 1051.22 179.553 1041.32 186.285C1031.42 193.016 1022.32 197.9 1014 200.935C1005.69 203.971 998.031 205.555 991.035 205.687C984.172 205.687 978.034 204.829 972.622 203.113C967.079 201.265 962.195 198.89 957.972 195.986C953.88 192.95 950.382 189.98 947.479 187.077L945.301 184.899L989.649 140.55C991.365 142.002 993.807 143.652 996.974 145.5C1000.14 147.084 1003.97 147.876 1008.46 147.876C1013.08 147.744 1018.42 146.226 1024.49 143.322C1030.7 140.286 1037.69 134.875 1045.48 127.088L1046.87 125.702C1054.52 118.046 1060.07 111.447 1063.5 105.903C1067.06 100.228 1069.24 95.41 1070.03 91.4504C1070.82 87.2267 1070.49 83.729 1069.04 80.9572C1067.72 78.0535 1066 75.5457 1063.89 73.4338C1061.78 71.322 1059.34 69.8041 1056.57 68.8802C1053.93 67.8243 1050.89 67.8243 1047.46 68.8802C1043.9 69.8041 1039.74 71.8499 1034.99 75.0177C1030.37 78.0534 1024.89 82.4751 1018.55 88.2826L998.36 107.289C985.821 119.036 974.272 127.813 963.713 133.621C953.154 139.164 943.453 142.53 934.61 143.718C925.766 144.642 917.781 143.652 910.654 140.748C903.526 137.845 897.191 133.621 891.647 128.077L889.865 126.296C884.19 120.62 879.636 114.219 876.204 107.091C872.905 99.8317 871.915 91.5824 873.235 82.3431C874.554 72.8399 878.778 62.1487 885.906 50.2697C893.033 38.3907 904.252 24.7958 919.563 9.48499L926.294 2.75354C942.529 -13.4811 956.916 -25.0962 969.455 -32.0916C981.862 -39.2191 992.751 -43.2447 1002.12 -44.1686C1011.49 -45.3565 1019.54 -44.1686 1026.28 -40.6049C1032.88 -37.1732 1038.62 -33.0155 1043.5 -28.132L1045.68 -25.9541L1001.92 17.8004C1000.08 16.4805 997.832 15.2925 995.193 14.2366C992.421 13.0487 989.055 12.8507 985.095 13.6426C981.136 14.1706 976.516 16.0185 971.237 19.1863C965.957 22.354 959.754 27.5016 952.626 34.629L950.646 36.6088C944.047 43.2083 938.965 48.9498 935.401 53.8334C931.838 58.4531 929.462 62.5447 928.274 66.1084C926.954 69.5401 926.69 72.5759 927.482 75.2157C928.142 77.7234 929.462 79.9673 931.442 81.9471C933.29 83.795 935.468 85.1808 937.975 86.1048C940.351 86.8967 943.189 86.8307 946.489 85.9069C949.788 84.9829 953.682 83.0691 958.17 80.1653C962.657 77.2615 967.937 73.0378 974.008 67.4943L995.193 47.8939C1008.79 35.3549 1021 26.0497 1031.82 19.9781C1042.51 13.7747 1052.21 10.145 1060.92 9.08905C1069.5 7.90112 1077.29 8.95709 1084.29 12.2568C1091.15 15.4246 1097.55 19.9781 1103.49 25.9177L1105.87 28.2935Z" fill="#1A1A1A" fill-opacity="0.1"/>
<path d="M608.587 1128.02L554.934 1181.68L339.329 1102.68L386.845 1055.16L546.42 1118.92L482.868 959.143L527.216 914.794L608.587 1128.02Z" fill="#1A1A1A" fill-opacity="0.1"/>
<path d="M756.602 829.145C752.114 824.657 746.769 820.763 740.565 817.463C734.362 813.9 727.432 811.986 719.777 811.722C712.122 811.458 703.74 813.372 694.633 817.463C685.658 821.423 675.957 828.616 665.529 839.044C655.234 849.339 648.041 859.04 643.949 868.147C639.99 877.123 638.076 885.504 638.208 893.291C638.472 900.947 640.319 907.942 643.751 914.278C647.183 920.349 651.143 925.629 655.63 930.116L658.402 932.888C662.89 937.376 668.301 941.335 674.637 944.767C680.84 948.067 687.836 949.915 695.623 950.311C703.41 950.443 711.858 948.595 720.965 944.767C730.204 940.807 739.905 933.746 750.069 923.583C760.364 913.288 767.491 903.521 771.451 894.281C775.411 885.042 777.258 876.595 776.994 868.939C776.599 861.152 774.685 854.223 771.253 848.151C767.821 841.816 763.861 836.404 759.374 831.916L756.602 829.145ZM636.228 801.031C653.386 783.872 669.951 771.927 685.922 765.196C701.892 758.2 716.807 754.901 730.666 755.296C744.393 755.56 756.932 758.596 768.283 764.404C779.634 770.211 789.335 777.141 797.387 785.192L803.326 791.132C811.246 799.051 818.175 808.752 824.115 820.235C829.922 831.586 833.09 844.257 833.618 858.248C834.014 872.107 830.846 887.154 824.115 903.389C817.383 919.359 805.438 935.924 788.279 953.082L779.568 961.794C768.085 973.277 756.866 982.384 745.911 989.115C734.824 995.715 724.133 1000.47 713.838 1003.37C703.674 1006.14 693.973 1007.4 684.734 1007.13C675.363 1006.74 666.585 1005.22 658.402 1002.58C650.219 999.675 642.695 995.979 635.832 991.491C628.968 987.004 622.897 982.12 617.617 976.841L611.678 970.901C606.398 965.621 601.515 959.55 597.027 952.687C592.539 945.823 588.91 938.366 586.138 930.314C583.498 922.131 582.046 913.42 581.782 904.181C581.386 894.809 582.64 885.108 585.544 875.077C588.58 864.914 593.463 854.354 600.195 843.399C606.926 832.444 616.033 821.225 627.517 809.742L636.228 801.031Z" fill="#1A1A1A" fill-opacity="0.1"/>
<path d="M930.761 710.025L935.909 800.701L887.997 848.614L878.098 708.837L741.687 700.323L793.361 648.65L879.088 654.391L873.148 568.862L920.07 521.94L930.167 655.975L1070.14 666.468L1020.84 715.766L930.761 710.025Z" fill="#1A1A1A" fill-opacity="0.1"/>
<path d="M1185.65 550.958L1144.87 591.743L1091.02 537.892L924.511 517.499L974.997 467.013L1077.55 481.268L1063.3 378.713L1108.83 333.176L1132 497.305L1185.65 550.958Z" fill="#1A1A1A" fill-opacity="0.1"/>
<path d="M1380.02 263.534C1385.44 268.945 1390.19 275.413 1394.28 282.936C1398.37 290.46 1400.09 299.303 1399.43 309.466C1398.9 319.497 1395.2 331.112 1388.34 344.311C1381.48 357.246 1369.79 371.963 1353.3 388.462L1347.55 394.203C1336.07 405.686 1325.38 414.794 1315.48 421.525C1305.58 428.256 1296.47 433.14 1288.16 436.176C1279.84 439.212 1272.19 440.795 1265.19 440.927C1258.33 440.927 1252.19 440.069 1246.78 438.354C1241.24 436.506 1236.35 434.13 1232.13 431.226C1228.04 428.19 1224.54 425.221 1221.64 422.317L1219.46 420.139L1263.81 375.791C1265.52 377.243 1267.97 378.893 1271.13 380.74C1274.3 382.324 1278.13 383.116 1282.62 383.116C1287.24 382.984 1292.58 381.466 1298.65 378.562C1304.86 375.527 1311.85 370.115 1319.64 362.328L1321.02 360.942C1328.68 353.287 1334.22 346.687 1337.66 341.143C1341.22 335.468 1343.4 330.65 1344.19 326.691C1344.98 322.467 1344.65 318.969 1343.2 316.198C1341.88 313.294 1340.16 310.786 1338.05 308.674C1335.94 306.562 1333.5 305.044 1330.73 304.12C1328.09 303.065 1325.05 303.065 1321.62 304.12C1318.05 305.044 1313.9 307.09 1309.15 310.258C1304.53 313.294 1299.05 317.715 1292.71 323.523L1272.52 342.529C1259.98 354.276 1248.43 363.054 1237.87 368.861C1227.31 374.405 1217.61 377.771 1208.77 378.958C1199.92 379.882 1191.94 378.892 1184.81 375.989C1177.68 373.085 1171.35 368.861 1165.81 363.318L1164.02 361.536C1158.35 355.86 1153.79 349.459 1150.36 342.331C1147.06 335.072 1146.07 326.823 1147.39 317.583C1148.71 308.08 1152.94 297.389 1160.06 285.51C1167.19 273.631 1178.41 260.036 1193.72 244.725L1200.45 237.994C1216.69 221.759 1231.07 210.144 1243.61 203.149C1256.02 196.021 1266.91 191.996 1276.28 191.072C1285.65 189.884 1293.7 191.072 1300.43 194.635C1307.03 198.067 1312.78 202.225 1317.66 207.108L1319.84 209.286L1276.08 253.041C1274.23 251.721 1271.99 250.533 1269.35 249.477C1266.58 248.289 1263.21 248.091 1259.25 248.883C1255.29 249.411 1250.67 251.259 1245.4 254.427C1240.12 257.594 1233.91 262.742 1226.78 269.869L1224.8 271.849C1218.21 278.449 1213.12 284.19 1209.56 289.074C1206 293.693 1203.62 297.785 1202.43 301.349C1201.11 304.78 1200.85 307.816 1201.64 310.456C1202.3 312.964 1203.62 315.208 1205.6 317.187C1207.45 319.035 1209.63 320.421 1212.13 321.345C1214.51 322.137 1217.35 322.071 1220.65 321.147C1223.95 320.223 1227.84 318.309 1232.33 315.406C1236.82 312.502 1242.1 308.278 1248.17 302.735L1269.35 283.134C1282.95 270.595 1295.15 261.29 1305.98 255.218C1316.67 249.015 1326.37 245.385 1335.08 244.329C1343.66 243.141 1351.45 244.197 1358.44 247.497C1365.31 250.665 1371.71 255.218 1377.65 261.158L1380.02 263.534Z" fill="#1A1A1A" fill-opacity="0.1"/>
<path d="M882.746 1363.26L829.092 1416.92L613.488 1337.92L661.004 1290.41L820.579 1354.16L757.026 1194.38L801.374 1150.03L882.746 1363.26Z" fill="#1A1A1A" fill-opacity="0.1"/>
<path d="M1030.76 1064.38C1026.27 1059.9 1020.93 1056 1014.72 1052.7C1008.52 1049.14 1001.59 1047.23 993.935 1046.96C986.28 1046.7 977.899 1048.61 968.791 1052.7C959.816 1056.66 950.115 1063.86 939.688 1074.28C929.393 1084.58 922.199 1094.28 918.108 1103.39C914.148 1112.36 912.234 1120.74 912.366 1128.53C912.63 1136.19 914.478 1143.18 917.91 1149.52C921.341 1155.59 925.301 1160.87 929.789 1165.36L932.56 1168.13C937.048 1172.62 942.46 1176.58 948.795 1180.01C954.999 1183.31 961.994 1185.16 969.781 1185.55C977.569 1185.68 986.016 1183.84 995.123 1180.01C1004.36 1176.05 1014.06 1168.99 1024.23 1158.82C1034.52 1148.53 1041.65 1138.76 1045.61 1129.52C1049.57 1120.28 1051.42 1111.83 1051.15 1104.18C1050.76 1096.39 1048.84 1089.46 1045.41 1083.39C1041.98 1077.06 1038.02 1071.64 1033.53 1067.16L1030.76 1064.38ZM910.386 1036.27C927.545 1019.11 944.109 1007.17 960.08 1000.44C976.051 993.441 990.966 990.141 1004.82 990.537C1018.55 990.801 1031.09 993.837 1042.44 999.644C1053.79 1005.45 1063.49 1012.38 1071.55 1020.43L1077.48 1026.37C1085.4 1034.29 1092.33 1043.99 1098.27 1055.48C1104.08 1066.83 1107.25 1079.5 1107.78 1093.49C1108.17 1107.35 1105 1122.39 1098.27 1138.63C1091.54 1154.6 1079.6 1171.16 1062.44 1188.32L1053.73 1197.03C1042.24 1208.52 1031.02 1217.62 1020.07 1224.36C1008.98 1230.96 998.291 1235.71 987.996 1238.61C977.833 1241.38 968.132 1242.64 958.892 1242.37C949.521 1241.98 940.744 1240.46 932.56 1237.82C924.377 1234.91 916.854 1231.22 909.99 1226.73C903.127 1222.24 897.055 1217.36 891.776 1212.08L885.836 1206.14C880.557 1200.86 875.673 1194.79 871.185 1187.93C866.698 1181.06 863.068 1173.61 860.296 1165.55C857.656 1157.37 856.205 1148.66 855.941 1139.42C855.545 1130.05 856.798 1120.35 859.702 1110.32C862.738 1100.15 867.622 1089.59 874.353 1078.64C881.085 1067.68 890.192 1056.47 901.675 1044.98L910.386 1036.27Z" fill="#1A1A1A" fill-opacity="0.1"/>
<path d="M1204.92 945.265L1210.07 1035.94L1162.16 1083.85L1152.26 944.077L1015.85 935.564L1067.52 883.89L1153.25 889.632L1147.31 804.103L1194.23 757.18L1204.33 891.215L1344.3 901.708L1295 951.007L1204.92 945.265Z" fill="#1A1A1A" fill-opacity="0.1"/>
<path d="M1459.81 786.199L1419.03 826.984L1365.17 773.132L1198.67 752.74L1249.16 702.254L1351.71 716.509L1337.46 613.953L1382.99 568.417L1406.16 732.545L1459.81 786.199Z" fill="#1A1A1A" fill-opacity="0.1"/>
<path d="M1654.18 498.774C1659.59 504.186 1664.35 510.653 1668.44 518.177C1672.53 525.7 1674.24 534.543 1673.58 544.706C1673.06 554.738 1669.36 566.353 1662.5 579.552C1655.63 592.486 1643.95 607.203 1627.45 623.702L1621.71 629.444C1610.23 640.927 1599.54 650.034 1589.64 656.765C1579.74 663.497 1570.63 668.38 1562.32 671.416C1554 674.452 1546.35 676.036 1539.35 676.168C1532.49 676.168 1526.35 675.31 1520.94 673.594C1515.4 671.746 1510.51 669.37 1506.29 666.467C1502.2 663.431 1498.7 660.461 1495.8 657.557L1493.62 655.379L1537.97 611.031C1539.68 612.483 1542.12 614.133 1545.29 615.981C1548.46 617.564 1552.29 618.356 1556.77 618.356C1561.39 618.224 1566.74 616.707 1572.81 613.803C1579.01 610.767 1586.01 605.355 1593.8 597.568L1595.18 596.182C1602.84 588.527 1608.38 581.927 1611.81 576.384C1615.38 570.708 1617.56 565.891 1618.35 561.931C1619.14 557.707 1618.81 554.21 1617.36 551.438C1616.04 548.534 1614.32 546.026 1612.21 543.915C1610.1 541.803 1607.66 540.285 1604.88 539.361C1602.24 538.305 1599.21 538.305 1595.78 539.361C1592.21 540.285 1588.06 542.331 1583.3 545.498C1578.68 548.534 1573.21 552.956 1566.87 558.763L1546.68 577.77C1534.14 589.517 1522.59 598.294 1512.03 604.102C1501.47 609.645 1491.77 613.011 1482.93 614.199C1474.08 615.123 1466.1 614.133 1458.97 611.229C1451.84 608.325 1445.51 604.102 1439.96 598.558L1438.18 596.776C1432.51 591.101 1427.95 584.699 1424.52 577.572C1421.22 570.312 1420.23 562.063 1421.55 552.824C1422.87 543.321 1427.09 532.629 1434.22 520.75C1441.35 508.871 1452.57 495.276 1467.88 479.966L1474.61 473.234C1490.85 457 1505.23 445.384 1517.77 438.389C1530.18 431.262 1541.07 427.236 1550.44 426.312C1559.81 425.124 1567.86 426.312 1574.59 429.876C1581.19 433.307 1586.93 437.465 1591.82 442.349L1594 444.527L1550.24 488.281C1548.39 486.961 1546.15 485.773 1543.51 484.717C1540.74 483.529 1537.37 483.331 1533.41 484.123C1529.45 484.651 1524.83 486.499 1519.55 489.667C1514.27 492.835 1508.07 497.982 1500.94 505.11L1498.96 507.089C1492.36 513.689 1487.28 519.43 1483.72 524.314C1480.15 528.934 1477.78 533.025 1476.59 536.589C1475.27 540.021 1475.01 543.057 1475.8 545.696C1476.46 548.204 1477.78 550.448 1479.76 552.428C1481.61 554.276 1483.78 555.661 1486.29 556.585C1488.67 557.377 1491.51 557.311 1494.81 556.387C1498.11 555.464 1502 553.55 1506.49 550.646C1510.97 547.742 1516.25 543.518 1522.33 537.975L1543.51 518.375C1557.1 505.836 1569.31 496.53 1580.14 490.459C1590.83 484.255 1600.53 480.626 1609.24 479.57C1617.82 478.382 1625.61 479.438 1632.6 482.737C1639.47 485.905 1645.87 490.459 1651.81 496.398L1654.18 498.774Z" fill="#1A1A1A" fill-opacity="0.1"/>
<path d="M1156.9 1598.5L1103.25 1652.16L887.646 1573.16L935.162 1525.65L1094.74 1589.4L1031.18 1429.62L1075.53 1385.27L1156.9 1598.5Z" fill="#1A1A1A" fill-opacity="0.1"/>
<path d="M1304.92 1299.63C1300.43 1295.14 1295.09 1291.24 1288.88 1287.94C1282.68 1284.38 1275.75 1282.47 1268.09 1282.2C1260.44 1281.94 1252.06 1283.85 1242.95 1287.94C1233.97 1291.9 1224.27 1299.1 1213.85 1309.52C1203.55 1319.82 1196.36 1329.52 1192.27 1338.63C1188.31 1347.6 1186.39 1355.98 1186.52 1363.77C1186.79 1371.43 1188.64 1378.42 1192.07 1384.76C1195.5 1390.83 1199.46 1396.11 1203.95 1400.6L1206.72 1403.37C1211.21 1407.86 1216.62 1411.82 1222.95 1415.25C1229.16 1418.55 1236.15 1420.4 1243.94 1420.79C1251.73 1420.92 1260.17 1419.08 1269.28 1415.25C1278.52 1411.29 1288.22 1404.23 1298.39 1394.06C1308.68 1383.77 1315.81 1374 1319.77 1364.76C1323.73 1355.52 1325.58 1347.08 1325.31 1339.42C1324.92 1331.63 1323 1324.7 1319.57 1318.63C1316.14 1312.3 1312.18 1306.88 1307.69 1302.4L1304.92 1299.63ZM1184.54 1271.51C1201.7 1254.35 1218.27 1242.41 1234.24 1235.68C1250.21 1228.68 1265.12 1225.38 1278.98 1225.78C1292.71 1226.04 1305.25 1229.08 1316.6 1234.88C1327.95 1240.69 1337.65 1247.62 1345.7 1255.67L1351.64 1261.61C1359.56 1269.53 1366.49 1279.23 1372.43 1290.72C1378.24 1302.07 1381.41 1314.74 1381.93 1328.73C1382.33 1342.59 1379.16 1357.63 1372.43 1373.87C1365.7 1389.84 1353.75 1406.4 1336.6 1423.56L1327.89 1432.27C1316.4 1443.76 1305.18 1452.86 1294.23 1459.6C1283.14 1466.2 1272.45 1470.95 1262.15 1473.85C1251.99 1476.62 1242.29 1477.88 1233.05 1477.61C1223.68 1477.22 1214.9 1475.7 1206.72 1473.06C1198.54 1470.16 1191.01 1466.46 1184.15 1461.97C1177.29 1457.48 1171.21 1452.6 1165.93 1447.32L1159.99 1441.38C1154.72 1436.1 1149.83 1430.03 1145.34 1423.17C1140.86 1416.3 1137.23 1408.85 1134.45 1400.79C1131.81 1392.61 1130.36 1383.9 1130.1 1374.66C1129.7 1365.29 1130.96 1355.59 1133.86 1345.56C1136.9 1335.39 1141.78 1324.84 1148.51 1313.88C1155.24 1302.92 1164.35 1291.71 1175.83 1280.22L1184.54 1271.51Z" fill="#1A1A1A" fill-opacity="0.1"/>
<path d="M1479.08 1180.51L1484.23 1271.18L1436.31 1319.09L1426.41 1179.32L1290 1170.8L1341.68 1119.13L1427.4 1124.87L1421.46 1039.34L1468.39 992.421L1478.48 1126.46L1618.46 1136.95L1569.16 1186.25L1479.08 1180.51Z" fill="#1A1A1A" fill-opacity="0.1"/>
<path d="M1733.97 1021.44L1693.18 1062.22L1639.33 1008.37L1472.83 987.98L1523.31 937.494L1625.87 951.749L1611.61 849.193L1657.15 803.657L1680.31 967.786L1733.97 1021.44Z" fill="#1A1A1A" fill-opacity="0.1"/>
<path d="M1928.34 734.014C1933.75 739.426 1938.5 745.893 1942.6 753.417C1946.69 760.94 1948.4 769.784 1947.74 779.947C1947.22 789.978 1943.52 801.593 1936.66 814.792C1929.79 827.727 1918.11 842.444 1901.61 858.942L1895.87 864.684C1884.39 876.167 1873.7 885.274 1863.8 892.006C1853.9 898.737 1844.79 903.621 1836.48 906.656C1828.16 909.692 1820.51 911.276 1813.51 911.408C1806.65 911.408 1800.51 910.55 1795.1 908.834C1789.55 906.986 1784.67 904.61 1780.45 901.707C1776.36 898.671 1772.86 895.701 1769.95 892.798L1767.78 890.62L1812.12 846.271C1813.84 847.723 1816.28 849.373 1819.45 851.221C1822.62 852.805 1826.45 853.597 1830.93 853.597C1835.55 853.465 1840.9 851.947 1846.97 849.043C1853.17 846.007 1860.17 840.596 1867.96 832.808L1869.34 831.423C1877 823.767 1882.54 817.168 1885.97 811.624C1889.54 805.949 1891.71 801.131 1892.51 797.171C1893.3 792.948 1892.97 789.45 1891.52 786.678C1890.2 783.774 1888.48 781.267 1886.37 779.155C1884.26 777.043 1881.81 775.525 1879.04 774.601C1876.4 773.545 1873.37 773.545 1869.94 774.601C1866.37 775.525 1862.21 777.571 1857.46 780.739C1852.84 783.774 1847.37 788.196 1841.03 794.004L1820.84 813.01C1808.3 824.757 1796.75 833.534 1786.19 839.342C1775.63 844.885 1765.93 848.251 1757.08 849.439C1748.24 850.363 1740.26 849.373 1733.13 846.469C1726 843.566 1719.67 839.342 1714.12 833.798L1712.34 832.016C1706.66 826.341 1702.11 819.939 1698.68 812.812C1695.38 805.553 1694.39 797.303 1695.71 788.064C1697.03 778.561 1701.25 767.87 1708.38 755.991C1715.51 744.112 1726.73 730.517 1742.04 715.206L1748.77 708.475C1765 692.24 1779.39 680.625 1791.93 673.629C1804.34 666.502 1815.23 662.476 1824.6 661.552C1833.97 660.365 1842.02 661.552 1848.75 665.116C1855.35 668.548 1861.09 672.705 1865.98 677.589L1868.15 679.767L1824.4 723.521C1822.55 722.201 1820.31 721.014 1817.67 719.958C1814.9 718.77 1811.53 718.572 1807.57 719.364C1803.61 719.892 1798.99 721.739 1793.71 724.907C1788.43 728.075 1782.23 733.223 1775.1 740.35L1773.12 742.33C1766.52 748.929 1761.44 754.671 1757.88 759.554C1754.31 764.174 1751.94 768.266 1750.75 771.829C1749.43 775.261 1749.17 778.297 1749.96 780.937C1750.62 783.444 1751.94 785.688 1753.92 787.668C1755.76 789.516 1757.94 790.902 1760.45 791.826C1762.83 792.618 1765.66 792.552 1768.96 791.628C1772.26 790.704 1776.16 788.79 1780.65 785.886C1785.13 782.983 1790.41 778.759 1796.48 773.215L1817.67 753.615C1831.26 741.076 1843.47 731.771 1854.29 725.699C1864.99 719.495 1874.69 715.866 1883.4 714.81C1891.98 713.622 1899.77 714.678 1906.76 717.978C1913.62 721.146 1920.03 725.699 1925.96 731.639L1928.34 734.014Z" fill="#1A1A1A" fill-opacity="0.1"/>
<path d="M1431.06 1833.74L1377.41 1887.4L1161.8 1808.4L1209.32 1760.89L1368.9 1824.64L1305.34 1664.86L1349.69 1620.52L1431.06 1833.74Z" fill="#1A1A1A" fill-opacity="0.1"/>
<path d="M1579.08 1534.87C1574.59 1530.38 1569.24 1526.48 1563.04 1523.18C1556.84 1519.62 1549.91 1517.71 1542.25 1517.44C1534.6 1517.18 1526.22 1519.09 1517.11 1523.18C1508.13 1527.14 1498.43 1534.34 1488 1544.76C1477.71 1555.06 1470.52 1564.76 1466.42 1573.87C1462.46 1582.84 1460.55 1591.22 1460.68 1599.01C1460.95 1606.67 1462.79 1613.66 1466.23 1620C1469.66 1626.07 1473.62 1631.35 1478.11 1635.84L1480.88 1638.61C1485.36 1643.1 1490.78 1647.06 1497.11 1650.49C1503.32 1653.79 1510.31 1655.64 1518.1 1656.03C1525.89 1656.16 1534.33 1654.32 1543.44 1650.49C1552.68 1646.53 1562.38 1639.47 1572.54 1629.3C1582.84 1619.01 1589.97 1609.24 1593.93 1600C1597.89 1590.76 1599.73 1582.32 1599.47 1574.66C1599.07 1566.87 1597.16 1559.94 1593.73 1553.87C1590.3 1547.54 1586.34 1542.12 1581.85 1537.64L1579.08 1534.87ZM1458.7 1506.75C1475.86 1489.59 1492.43 1477.65 1508.4 1470.92C1524.37 1463.92 1539.28 1460.62 1553.14 1461.02C1566.87 1461.28 1579.41 1464.32 1590.76 1470.12C1602.11 1475.93 1611.81 1482.86 1619.86 1490.91L1625.8 1496.85C1633.72 1504.77 1640.65 1514.47 1646.59 1525.96C1652.4 1537.31 1655.57 1549.98 1656.09 1563.97C1656.49 1577.83 1653.32 1592.87 1646.59 1609.11C1639.86 1625.08 1627.91 1641.64 1610.75 1658.8L1602.04 1667.51C1590.56 1679 1579.34 1688.1 1568.39 1694.84C1557.3 1701.44 1546.61 1706.19 1536.31 1709.09C1526.15 1711.86 1516.45 1713.12 1507.21 1712.85C1497.84 1712.46 1489.06 1710.94 1480.88 1708.3C1472.69 1705.4 1465.17 1701.7 1458.31 1697.21C1451.44 1692.72 1445.37 1687.84 1440.09 1682.56L1434.15 1676.62C1428.87 1671.34 1423.99 1665.27 1419.5 1658.41C1415.01 1651.54 1411.38 1644.09 1408.61 1636.04C1405.97 1627.85 1404.52 1619.14 1404.26 1609.9C1403.86 1600.53 1405.12 1590.83 1408.02 1580.8C1411.05 1570.63 1415.94 1560.08 1422.67 1549.12C1429.4 1538.17 1438.51 1526.95 1449.99 1515.46L1458.7 1506.75Z" fill="#1A1A1A" fill-opacity="0.1"/>
<path d="M1753.24 1415.75L1758.38 1506.42L1710.47 1554.33L1700.57 1414.56L1564.16 1406.04L1615.84 1354.37L1701.56 1360.11L1695.62 1274.58L1742.55 1227.66L1752.64 1361.7L1892.62 1372.19L1843.32 1421.49L1753.24 1415.75Z" fill="#1A1A1A" fill-opacity="0.1"/>
<path d="M2008.13 1256.68L1967.34 1297.46L1913.49 1243.61L1746.99 1223.22L1797.47 1172.73L1900.03 1186.99L1885.77 1084.43L1931.31 1038.9L1954.47 1203.03L2008.13 1256.68Z" fill="#1A1A1A" fill-opacity="0.1"/>
<path d="M2202.5 969.255C2207.91 974.666 2212.66 981.134 2216.75 988.657C2220.85 996.181 2222.56 1005.02 2221.9 1015.19C2221.37 1025.22 2217.68 1036.83 2210.81 1050.03C2203.95 1062.97 2192.27 1077.68 2175.77 1094.18L2170.03 1099.92C2158.55 1111.41 2147.86 1120.51 2137.96 1127.25C2128.06 1133.98 2118.95 1138.86 2110.63 1141.9C2102.32 1144.93 2094.66 1146.52 2087.67 1146.65C2080.81 1146.65 2074.67 1145.79 2069.26 1144.07C2063.71 1142.23 2058.83 1139.85 2054.61 1136.95C2050.51 1133.91 2047.02 1130.94 2044.11 1128.04L2041.93 1125.86L2086.28 1081.51C2088 1082.96 2090.44 1084.61 2093.61 1086.46C2096.78 1088.05 2100.6 1088.84 2105.09 1088.84C2109.71 1088.71 2115.06 1087.19 2121.13 1084.28C2127.33 1081.25 2134.33 1075.84 2142.11 1068.05L2143.5 1066.66C2151.16 1059.01 2156.7 1052.41 2160.13 1046.86C2163.69 1041.19 2165.87 1036.37 2166.66 1032.41C2167.46 1028.19 2167.13 1024.69 2165.67 1021.92C2164.35 1019.01 2162.64 1016.51 2160.53 1014.4C2158.42 1012.28 2155.97 1010.77 2153.2 1009.84C2150.56 1008.79 2147.53 1008.79 2144.09 1009.84C2140.53 1010.77 2136.37 1012.81 2131.62 1015.98C2127 1019.01 2121.52 1023.44 2115.19 1029.24L2094.99 1048.25C2082.46 1060 2070.91 1068.77 2060.35 1074.58C2049.79 1080.13 2040.09 1083.49 2031.24 1084.68C2022.4 1085.6 2014.41 1084.61 2007.29 1081.71C2000.16 1078.81 1993.82 1074.58 1988.28 1069.04L1986.5 1067.26C1980.82 1061.58 1976.27 1055.18 1972.84 1048.05C1969.54 1040.79 1968.55 1032.54 1969.87 1023.3C1971.19 1013.8 1975.41 1003.11 1982.54 991.231C1989.67 979.352 2000.89 965.757 2016.2 950.446L2022.93 943.715C2039.16 927.48 2053.55 915.865 2066.09 908.87C2078.5 901.742 2089.38 897.717 2098.76 896.793C2108.13 895.605 2116.18 896.793 2122.91 900.356C2129.51 903.788 2135.25 907.946 2140.13 912.829L2142.31 915.007L2098.56 958.762C2096.71 957.442 2094.47 956.254 2091.83 955.198C2089.05 954.01 2085.69 953.812 2081.73 954.604C2077.77 955.132 2073.15 956.98 2067.87 960.147C2062.59 963.315 2056.39 968.463 2049.26 975.59L2047.28 977.57C2040.68 984.17 2035.6 989.911 2032.04 994.795C2028.47 999.414 2026.1 1003.51 2024.91 1007.07C2023.59 1010.5 2023.32 1013.54 2024.12 1016.18C2024.78 1018.68 2026.1 1020.93 2028.08 1022.91C2029.92 1024.76 2032.1 1026.14 2034.61 1027.07C2036.98 1027.86 2039.82 1027.79 2043.12 1026.87C2046.42 1025.94 2050.32 1024.03 2054.8 1021.13C2059.29 1018.22 2064.57 1014 2070.64 1008.46L2091.83 988.855C2105.42 976.316 2117.63 967.011 2128.45 960.939C2139.14 954.736 2148.85 951.106 2157.56 950.05C2166.14 948.862 2173.92 949.918 2180.92 953.218C2187.78 956.386 2194.18 960.939 2200.12 966.879L2202.5 969.255Z" fill="#1A1A1A" fill-opacity="0.1"/>
</svg>
