<svg width="354" height="75" viewBox="0 0 354 75" fill="none" xmlns="http://www.w3.org/2000/svg">
<rect x="2.41779" y="1.46466" width="349.566" height="71.2802" rx="10.9036" fill="black" stroke="black" stroke-width="2.92932"/>
<path d="M43.2373 41.5098L39.1135 37.2339L43.2373 32.9579V24.4136L30.8733 37.2339L43.2373 50.0629V41.5098Z" fill="white"/>
<path d="M18.4766 58.6324H59.7495V15.8353H18.4766V58.6324ZM53.8493 52.5221H24.3694V21.9544H53.8493V52.5221Z" fill="white"/>
<path d="M69.4159 31.7424L72.1944 28.5983C72.503 28.9732 72.8552 29.3072 73.243 29.5925C74.0402 30.2064 75.0036 30.5453 75.9969 30.5612C76.5986 30.5834 77.1912 30.4047 77.6872 30.0514C77.8694 29.9327 78.02 29.7686 78.1252 29.5742C78.2304 29.3797 78.2869 29.1611 78.2895 28.9382C78.2704 28.7287 78.2034 28.527 78.0941 28.3497C77.9848 28.1724 77.8364 28.0246 77.661 27.9185C77.1804 27.6071 76.6585 27.3701 76.1117 27.2149C75.4283 27.0032 74.7571 26.7512 74.1014 26.4603C73.3998 26.165 72.723 25.8103 72.0778 25.3998C71.4333 24.9794 70.9042 24.3941 70.5417 23.7002C70.105 22.8909 69.8883 21.974 69.9148 21.0473C69.9159 20.2837 70.083 19.5301 70.4037 18.8425C70.7245 18.1549 71.1907 17.551 71.7677 17.0755C73.1266 15.9438 74.8416 15.3724 76.5828 15.4712C78.2433 15.4381 79.8783 15.8981 81.2945 16.7968C81.8522 17.1626 82.3568 17.609 82.7928 18.1224L80.0554 21.2512C79.8294 20.9752 79.5664 20.7343 79.2742 20.5357C78.6617 20.0527 77.9106 19.7961 77.1407 19.8066C76.614 19.7701 76.0891 19.9024 75.6375 20.1856C75.4827 20.2867 75.3538 20.4248 75.2616 20.5884C75.1699 20.7525 75.1192 20.9377 75.1139 21.1272C75.1255 21.3369 75.1894 21.54 75.2992 21.7166C75.4091 21.8932 75.5612 22.0373 75.7409 22.135C76.2137 22.4522 76.7322 22.6897 77.277 22.8386C77.9654 23.0446 78.6412 23.2938 79.3005 23.5847C79.9958 23.8845 80.6679 24.239 81.3109 24.6452C81.9572 25.072 82.4898 25.6599 82.8601 26.3549C83.2883 27.1672 83.5001 28.0828 83.4739 29.0079C83.4813 29.8078 83.3135 30.5992 82.9832 31.3224C82.6529 32.0456 82.1687 32.6819 81.5669 33.1836C80.1289 34.4034 78.3007 35.0191 76.4449 34.9086C74.5491 34.9448 72.6859 34.3951 71.0932 33.3297C70.4606 32.8904 69.8952 32.3554 69.4159 31.7424Z" fill="white"/>
<path d="M89.9148 34.3666V27.8031L83.5144 16.0016H88.8349L92.2025 23.2143H92.3059L95.7884 16.0016H101.102L94.702 27.8031V34.3666H89.9148Z" fill="white"/>
<path d="M102.437 34.3666V16.0016H106.625L114.23 26.078V16.0016H119.045V34.3666H114.859L107.316 24.2647V34.37L102.437 34.3666Z" fill="white"/>
<path d="M122.682 34.3666V16.0016H136.254V20.456H127.508V23.109H134.206V27.2847H127.477V29.9377H136.441V34.3921L122.682 34.3666Z" fill="white"/>
<path d="M139.148 34.3664V16.0014H147.509C148.357 15.9702 149.202 16.1137 149.995 16.4236C150.788 16.7334 151.514 17.2034 152.131 17.8063C152.722 18.381 153.19 19.0785 153.503 19.8531C153.816 20.6276 153.968 21.4619 153.949 22.3015C153.978 23.0559 153.858 23.8085 153.596 24.5131C153.334 25.2177 152.936 25.8594 152.426 26.3991C151.998 26.88 151.485 27.2712 150.915 27.5513L154.589 34.3681H149.469L146.626 28.5982H143.963V34.3664H139.148ZM143.963 24.1285H147.26C147.507 24.1409 147.755 24.1022 147.987 24.0147C148.22 23.9271 148.434 23.7925 148.616 23.6186C148.791 23.4498 148.93 23.2443 149.022 23.0158C149.115 22.7872 149.16 22.5409 149.154 22.293C149.163 22.0447 149.12 21.7974 149.027 21.5683C148.934 21.3393 148.793 21.1342 148.616 20.9674C148.436 20.7886 148.223 20.6493 147.99 20.5578C147.757 20.4662 147.509 20.4251 147.26 20.4371H143.963V24.1285Z" fill="white"/>
<path d="M165.998 27.8029V24.1285H173.605V31.2325C173.031 31.9374 172.363 32.5532 171.62 33.0612C169.889 34.2835 167.837 34.927 165.742 34.9052C164.442 34.9449 163.147 34.7155 161.933 34.2305C160.719 33.7455 159.611 33.0146 158.674 32.0806C157.765 31.2015 157.045 30.1347 156.56 28.9494C156.075 27.764 155.836 26.4864 155.857 25.1992C155.834 23.9097 156.073 22.6296 156.558 21.4418C157.043 20.254 157.764 19.1851 158.674 18.3042C160.389 16.6749 162.581 15.6876 164.902 15.4999C167.222 15.3123 169.536 15.9353 171.474 17.2692C172.176 17.7718 172.817 18.3595 173.383 19.0197L170.463 22.4409C170.08 21.9973 169.651 21.5984 169.183 21.2512C168.2 20.4973 167.013 20.0812 165.79 20.0615C165.132 20.0491 164.479 20.1725 163.868 20.4245C163.257 20.6765 162.701 21.052 162.231 21.5291C161.762 22.0063 161.39 22.5754 161.135 23.2034C160.881 23.8313 160.75 24.5055 160.75 25.1864C160.75 25.8674 160.881 26.5416 161.135 27.1695C161.39 27.7975 161.762 28.3666 162.231 28.8437C162.701 29.3209 163.257 29.6964 163.868 29.9484C164.479 30.2004 165.132 30.3237 165.79 30.3113C166.596 30.3319 167.396 30.15 168.12 29.7811C168.41 29.6253 168.688 29.4481 168.954 29.2508V27.8063L165.998 27.8029Z" fill="white"/>
<path d="M180.673 34.3666V27.8031L174.338 16.0016H179.664L183.036 23.2143H183.14L186.506 16.0016H191.833L185.495 27.8031V34.3666H180.673Z" fill="white"/>
<path d="M70.6506 58.4718V43.009H76.4892C79.3123 43.009 82.0712 43.7768 82.0712 46.9547C82.0712 48.405 81.2585 49.6847 80.3388 50.2605C81.622 50.8364 82.67 51.8388 82.67 53.8863C82.67 57.2135 80.0394 58.4718 76.8742 58.4718H70.6506ZM73.3667 51.5402V56.2964H76.9811C78.9273 56.2964 79.8683 55.4219 79.8683 53.8863C79.8683 52.2867 78.9059 51.5402 76.8314 51.5402H73.3667ZM73.3667 45.1844V49.4714H76.7458C78.3498 49.4714 79.3122 48.7889 79.3122 47.2532C79.3122 45.8882 78.2857 45.1844 76.7458 45.1844H73.3667Z" fill="white"/>
<path d="M84.2524 43.009H86.9686V52.1374C86.9686 54.974 87.7171 56.531 90.6043 56.531C93.4488 56.531 94.2187 54.8887 94.2187 52.0521V43.009H96.9349V51.9454C96.9349 56.8296 95.117 58.7491 90.6043 58.7491C86.1559 58.7491 84.2524 57.0215 84.2524 52.0307V43.009Z" fill="white"/>
<path d="M105.164 51.8175L103.282 51.4549C100.823 50.943 98.8125 49.706 98.8125 47.0826C98.8125 44.2033 101.828 42.7317 104.673 42.7317C107.752 42.7317 110.126 44.118 110.746 47.3386H108.116C107.667 45.483 106.063 44.9498 104.523 44.9498C103.325 44.9498 101.55 45.483 101.55 46.9973C101.55 48.1917 102.512 48.7889 103.86 49.0448L105.763 49.4074C108.479 49.9193 111.067 50.943 111.067 54.0356C111.067 57.1708 107.966 58.7491 104.908 58.7491C101.208 58.7491 98.727 56.7656 98.3848 53.3531H101.058C101.55 55.4859 102.897 56.531 105.036 56.531C106.875 56.531 108.351 55.6992 108.351 54.2062C108.351 52.6066 106.64 52.0947 105.164 51.8175Z" fill="white"/>
<path d="M115.546 43.009V58.4718H112.83V43.009H115.546Z" fill="white"/>
<path d="M131.083 58.4718H127.447L120.881 46.1229V58.4718H118.251V43.009H121.886L128.452 55.3579V43.009H131.083V58.4718Z" fill="white"/>
<path d="M133.779 58.4718V43.009H144.751V45.2697H136.496V49.4074H144.302V51.6468H136.496V56.1897H144.751V58.4718H133.779Z" fill="white"/>
<path d="M152.284 51.8175L150.402 51.4549C147.942 50.943 145.932 49.706 145.932 47.0826C145.932 44.2033 148.948 42.7317 151.792 42.7317C154.872 42.7317 157.246 44.118 157.866 47.3386H155.235C154.786 45.483 153.182 44.9498 151.642 44.9498C150.445 44.9498 148.67 45.483 148.67 46.9973C148.67 48.1917 149.632 48.7889 150.979 49.0448L152.883 49.4074C155.599 49.9193 158.187 50.943 158.187 54.0356C158.187 57.1708 155.086 58.7491 152.027 58.7491C148.327 58.7491 145.847 56.7656 145.504 53.3531H148.178C148.67 55.4859 150.017 56.531 152.156 56.531C153.995 56.531 155.471 55.6992 155.471 54.2062C155.471 52.6066 153.76 52.0947 152.284 51.8175Z" fill="white"/>
<path d="M166.058 51.8175L164.176 51.4549C161.717 50.943 159.707 49.706 159.707 47.0826C159.707 44.2033 162.722 42.7317 165.567 42.7317C168.646 42.7317 171.02 44.118 171.64 47.3386H169.01C168.561 45.483 166.957 44.9498 165.417 44.9498C164.219 44.9498 162.444 45.483 162.444 46.9973C162.444 48.1917 163.407 48.7889 164.754 49.0448L166.657 49.4074C169.373 49.9193 171.961 50.943 171.961 54.0356C171.961 57.1708 168.86 58.7491 165.802 58.7491C162.102 58.7491 159.621 56.7656 159.279 53.3531H161.952C162.444 55.4859 163.791 56.531 165.93 56.531C167.769 56.531 169.245 55.6992 169.245 54.2062C169.245 52.6066 167.534 52.0947 166.058 51.8175Z" fill="white"/>
<path d="M186.409 51.8175L184.527 51.4549C182.067 50.943 180.057 49.706 180.057 47.0826C180.057 44.2033 183.072 42.7317 185.917 42.7317C188.997 42.7317 191.37 44.118 191.991 47.3386H189.36C188.911 45.483 187.307 44.9498 185.767 44.9498C184.57 44.9498 182.794 45.483 182.794 46.9973C182.794 48.1917 183.757 48.7889 185.104 49.0448L187.008 49.4074C189.724 49.9193 192.312 50.943 192.312 54.0356C192.312 57.1708 189.21 58.7491 186.152 58.7491C182.452 58.7491 179.971 56.7656 179.629 53.3531H182.302C182.794 55.4859 184.142 56.531 186.28 56.531C188.12 56.531 189.595 55.6992 189.595 54.2062C189.595 52.6066 187.884 52.0947 186.409 51.8175Z" fill="white"/>
<path d="M204.787 53.3317H207.397C206.734 56.8082 204.296 58.7491 200.703 58.7491C196.169 58.7491 193.538 55.5499 193.538 50.6871C193.538 45.8243 196.318 42.7317 200.831 42.7317C204.274 42.7317 206.734 44.6725 207.354 48.149H204.745C204.253 46.0375 202.777 44.9498 200.745 44.9498C198.286 44.9498 196.34 46.9546 196.34 50.6871C196.34 54.4408 198.243 56.531 200.724 56.531C202.841 56.531 204.296 55.4646 204.787 53.3317Z" fill="white"/>
<path d="M219.364 43.0089H222.08V58.4718H219.364V51.6468H211.965V58.4718H209.248V43.0089H211.965V49.4074H219.364V43.0089Z" fill="white"/>
<path d="M226.959 50.7297C226.959 54.5048 228.99 56.531 231.557 56.531C234.123 56.531 236.155 54.5048 236.155 50.7297C236.155 46.976 234.123 44.9498 231.557 44.9498C228.99 44.9498 226.959 46.976 226.959 50.7297ZM238.957 50.7297C238.957 55.4859 236.112 58.7491 231.557 58.7491C227.001 58.7491 224.157 55.4859 224.157 50.7297C224.157 45.9522 227.001 42.7317 231.557 42.7317C236.112 42.7317 238.957 45.9522 238.957 50.7297Z" fill="white"/>
<path d="M243.407 50.7297C243.407 54.5048 245.438 56.531 248.005 56.531C250.571 56.531 252.603 54.5048 252.603 50.7297C252.603 46.976 250.571 44.9498 248.005 44.9498C245.438 44.9498 243.407 46.976 243.407 50.7297ZM255.405 50.7297C255.405 55.4859 252.56 58.7491 248.005 58.7491C243.449 58.7491 240.605 55.4859 240.605 50.7297C240.605 45.9522 243.449 42.7317 248.005 42.7317C252.56 42.7317 255.405 45.9522 255.405 50.7297Z" fill="white"/>
<path d="M260.201 43.0089V56.1897H268.007V58.4718H257.485V43.0089H260.201Z" fill="white"/>
<path d="M283.724 50.7297C283.724 45.8456 280.73 45.1844 277.757 45.1844H276.367V56.2964H277.757C280.73 56.2964 283.724 55.6138 283.724 50.7297ZM273.651 43.0089H277.886C282.783 43.0089 286.547 44.6939 286.547 50.7297C286.547 56.7656 282.783 58.4718 277.886 58.4718H273.651V43.0089Z" fill="white"/>
<path d="M288.36 43.0089H291.076V52.1374C291.076 54.974 291.825 56.531 294.712 56.531C297.556 56.531 298.326 54.8887 298.326 52.0521V43.0089H301.042V51.9454C301.042 56.8296 299.225 58.7491 294.712 58.7491C290.263 58.7491 288.36 57.0215 288.36 52.0307V43.0089Z" fill="white"/>
<path d="M303.498 58.4718V43.0089H309.336C312.159 43.0089 314.918 43.7768 314.918 46.9547C314.918 48.405 314.105 49.6846 313.186 50.2605C314.469 50.8364 315.517 51.8388 315.517 53.8863C315.517 57.2135 312.886 58.4718 309.721 58.4718H303.498ZM306.214 51.5402V56.2964H309.828C311.774 56.2964 312.715 55.4219 312.715 53.8863C312.715 52.2867 311.753 51.5402 309.678 51.5402H306.214ZM306.214 45.1844V49.4714H309.593C311.197 49.4714 312.159 48.7889 312.159 47.2532C312.159 45.8882 311.133 45.1844 309.593 45.1844H306.214Z" fill="white"/>
<path d="M315.565 58.4718L321.339 43.0089H324.205L330.022 58.4718H327.049L325.83 55.038H319.543L318.345 58.4718H315.565ZM322.665 46.1442L320.334 52.7772H325.018L322.665 46.1442Z" fill="white"/>
<path d="M333.867 43.0089V58.4718H331.151V43.0089H333.867Z" fill="white"/>
</svg>
