<svg width="146" height="30" viewBox="0 0 146 30" fill="none" xmlns="http://www.w3.org/2000/svg">
<path d="M143.573 6.8171C143.311 6.8171 143.067 6.77092 142.84 6.67847C142.613 6.58182 142.415 6.45375 142.244 6.294C142.079 6.13013 141.946 5.94112 141.846 5.72678C141.749 5.50832 141.702 5.27519 141.702 5.0272C141.702 4.7793 141.749 4.54822 141.846 4.33397C141.946 4.11552 142.079 3.92641 142.244 3.76676C142.415 3.60289 142.613 3.47473 142.84 3.38229C143.067 3.28563 143.311 3.2373 143.573 3.2373C143.834 3.2373 144.079 3.28563 144.306 3.38229C144.532 3.47473 144.729 3.60289 144.894 3.76676C145.065 3.92641 145.199 4.11552 145.294 4.33397C145.394 4.54822 145.445 4.7793 145.445 5.0272C145.445 5.27519 145.394 5.50832 145.294 5.72678C145.199 5.94112 145.065 6.13013 144.894 6.294C144.729 6.45375 144.532 6.58182 144.306 6.67847C144.079 6.77092 143.834 6.8171 143.573 6.8171ZM143.573 6.3886C143.77 6.3886 143.95 6.35495 144.116 6.28774C144.286 6.21632 144.434 6.11966 144.561 5.99786C144.688 5.87176 144.786 5.72678 144.855 5.56292C144.93 5.39493 144.967 5.2163 144.967 5.0272C144.967 4.83819 144.93 4.6617 144.855 4.49784C144.786 4.32977 144.688 4.18488 144.561 4.06298C144.434 3.93689 144.286 3.84023 144.116 3.77302C143.95 3.7016 143.77 3.6659 143.573 3.6659C143.377 3.6659 143.193 3.7016 143.023 3.77302C142.857 3.84023 142.711 3.93689 142.585 4.06298C142.458 4.18488 142.358 4.32977 142.284 4.49784C142.214 4.6617 142.179 4.83819 142.179 5.0272C142.179 5.2163 142.214 5.39493 142.284 5.56292C142.358 5.72678 142.458 5.87176 142.585 5.99786C142.711 6.11966 142.857 6.21632 143.023 6.28774C143.193 6.35495 143.377 6.3886 143.573 6.3886ZM143.599 5.36755H143.331V5.97262H142.867V4.08187H143.606C143.889 4.08187 144.094 4.13646 144.221 4.24573C144.348 4.35501 144.411 4.51672 144.411 4.73106C144.411 5.02094 144.283 5.21219 144.031 5.30455L144.365 5.97262H143.874L143.599 5.36755ZM143.331 4.48522V4.97055H143.606C143.724 4.97055 143.804 4.95158 143.847 4.91381C143.896 4.87184 143.919 4.8108 143.919 4.73106C143.919 4.65123 143.896 4.59029 143.847 4.54822C143.804 4.50625 143.724 4.48522 143.606 4.48522H143.331Z" fill="black"/>
<path d="M41.7656 19.7651H44.1361V13.1939L47.0103 17.1989H47.3511L50.2402 13.1494V19.7651H52.6107V9.38172H50.3736L47.3511 13.7576L44.151 9.38172H41.7656V19.7651ZM55.2792 19.7651H61.5761V17.5401H57.6498V15.6562H60.9834V13.4312H57.6498V11.6067H61.4278V9.38172H55.2792V19.7651ZM68.0683 16.0716H70.2757V17.1989C70.0388 17.4214 69.2682 17.7181 68.646 17.7181C66.7941 17.7181 65.5791 16.4869 65.5791 14.5734C65.5791 12.4374 66.8978 11.4287 68.6016 11.4287C69.4016 11.4287 70.3054 11.7551 70.7202 12.2L71.7128 10.2865C70.8684 9.61906 69.8609 9.20363 68.3201 9.20363C65.0606 9.20363 63.0605 11.5919 63.0605 14.5734C63.0605 17.807 65.0606 19.943 68.6164 19.943C69.9053 19.943 71.5796 19.3942 72.4982 18.4746V13.8465H68.0683V16.0716ZM73.2324 19.7651H75.6178L76.4771 17.5845H80.581L81.4405 19.7651H83.974L79.6626 9.38172H77.5438L73.2324 19.7651ZM78.5365 12.4226L79.6921 15.3595H77.3661L78.5365 12.4226ZM92.1108 16.9616C91.4141 17.4807 90.5993 17.7181 89.8587 17.7181C87.9916 17.7181 86.7177 16.4127 86.7177 14.5734C86.7177 12.5264 88.0212 11.4287 89.6219 11.4287C90.5994 11.4287 91.1773 11.7254 91.7401 12.0665L92.7924 10.2865C92.1698 9.6784 90.9995 9.20363 89.6219 9.20363C86.0513 9.20363 84.1994 11.5919 84.1994 14.5734C84.1994 17.807 86.4212 19.943 89.6363 19.943C91.0441 19.943 92.3922 19.4387 93.0148 18.7415L92.1108 16.9616ZM93.3151 19.7651H95.7003L96.5597 17.5845H100.663L101.523 19.7651H104.056L99.7446 9.38172H97.6264L93.3151 19.7651ZM98.6189 12.4226L99.7748 15.3595H97.4486L98.6189 12.4226ZM105.384 19.7651H107.755V13.1939L110.629 17.1989H110.969L113.858 13.1494V19.7651H116.229V9.38172H113.993L110.969 13.7576L107.77 9.38172H105.384V19.7651ZM121.269 19.7651V16.2347C121.638 16.2792 122.202 16.2792 122.423 16.2792C124.824 16.2792 126.261 14.6475 126.261 12.7934C126.261 10.9985 125.224 9.35201 122.068 9.35201C121.269 9.35201 119.476 9.38172 118.897 9.38172V19.7651H121.269ZM122.305 11.577C123.15 11.577 123.743 11.8588 123.743 12.7785C123.743 13.7872 122.972 14.0542 122.35 14.0542C122.009 14.0542 121.608 14.0245 121.269 13.9801V11.6067C121.757 11.5919 121.995 11.577 122.305 11.577ZM136.794 9.38172H134.424V15.0035C134.424 16.6649 133.994 17.7181 132.557 17.7181C130.898 17.7181 130.409 16.4869 130.409 14.8701V9.38172H128.038V15.3744C128.038 18.4152 129.89 19.943 132.557 19.943C134.78 19.943 136.794 18.6526 136.794 15.4783V9.38172ZM143.12 16.9171C143.12 17.4065 142.765 17.7181 142.143 17.7181C141.416 17.7181 140.512 17.3768 139.92 16.6204L138.573 18.2372C139.076 19.3497 140.69 19.943 142.084 19.943C144.083 19.943 145.64 18.6971 145.64 16.8874C145.64 13.5054 141.313 13.9207 141.313 12.2C141.313 11.7254 141.698 11.4287 142.35 11.4287C143.121 11.4287 143.461 11.6957 143.921 12.1259L145.194 10.3458C144.543 9.64868 143.476 9.20363 142.143 9.20363C140.069 9.20363 138.794 10.598 138.794 12.2C138.794 15.5524 143.12 15.3595 143.12 16.9171Z" fill="black"/>
<rect x="0.742188" y="5.2207" width="30.5774" height="17.899" fill="white"/>
<path fill-rule="evenodd" clip-rule="evenodd" d="M29.3809 29.0858C30.8567 29.0858 32.0654 27.9895 32.0654 26.6509H32.069V2.43502C32.069 1.09639 30.8602 0 29.3845 0H2.68444C1.20871 0 0 1.09639 0 2.43172V26.6509C0 27.9927 1.20871 29.0858 2.68083 29.0858H29.3809ZM7.47816 19.0757H4.93082V9.01735H7.49408L10.933 13.2562L14.1808 9.01735H16.5849V19.0757H14.0375V12.6671L10.933 16.5899H10.5669L7.47816 12.7102V19.0757ZM24.7381 17.0928C25.5342 17.0928 26.4098 16.8629 27.1581 16.36L28.1293 18.0842C27.4606 18.7596 26.0118 19.2481 24.4993 19.2481C21.0445 19.2481 18.6563 17.179 18.6563 14.0466C18.6563 11.1584 20.6464 8.84487 24.4833 8.84487C25.964 8.84487 27.2218 9.30481 27.8905 9.8938L26.76 11.6181C26.1551 11.2877 25.5342 11.0003 24.4833 11.0003C22.7639 11.0003 21.3629 12.0636 21.3629 14.0466C21.3629 15.8283 22.7322 17.0928 24.7381 17.0928Z" fill="black"/>
</svg>
