<svg width="130" height="30" viewBox="0 0 130 30" fill="none" xmlns="http://www.w3.org/2000/svg">
<path d="M0.106551 17.2331V0.366275H13.1524C17.0765 0.366275 19.2374 1.76098 19.2374 4.39876V4.55038C19.2374 6.64244 18.0925 7.64343 16.0799 7.94658V8.70903C18.1302 9.04597 19.9803 9.9349 19.9803 12.3812V12.4922C19.9803 15.5617 17.9017 17.2331 13.62 17.2331H0.106551ZM11.2641 7.0768C12.7931 7.0768 13.4796 6.50768 13.4796 5.48942V5.33962C13.4796 4.44115 12.9594 3.81223 11.2641 3.81223H5.49289V7.0768H11.2641ZM11.1334 13.7873C12.7589 13.7873 13.6653 13.2476 13.6653 12.1084V11.8686C13.6653 10.8826 13.2113 10.1599 11.1334 10.1599H5.49289V13.7873H11.1334Z" fill="#005B43"/>
<path d="M92.8209 17.4165H86.7416V0.366275H92.3743V10.0831H93.0258L100.142 0.366275H106.644V17.4165H100.823V7.51636H100.153L92.8209 17.4165Z" fill="#005B43"/>
<path fill-rule="evenodd" clip-rule="evenodd" d="M63.4826 8.65223C63.4826 15.371 68.4154 17.595 74.4725 17.595C78.9684 17.595 84.7164 16.2729 84.8444 10.2665H79.0111C78.6073 12.961 76.3139 13.6818 74.3101 13.6818C71.1949 13.6818 69.3455 11.8539 69.3455 8.71205C69.3455 5.92254 70.8411 4.00583 74.2174 4.00583C77.5093 4.00583 78.4889 5.4223 78.8358 6.78308H84.689C84.6359 5.31853 83.4515 0.0982876 74.3101 0.0982876C64.9361 0.0982876 63.4826 5.56922 63.4826 8.65223Z" fill="#005B43"/>
<path fill-rule="evenodd" clip-rule="evenodd" d="M108.638 8.65223C108.638 15.371 113.571 17.595 119.628 17.595C124.124 17.595 129.872 16.2729 130 10.2665H124.166C123.763 12.961 121.469 13.6818 119.466 13.6818C116.351 13.6818 114.501 11.8539 114.501 8.71205C114.501 5.92254 115.997 4.00583 119.373 4.00583C122.665 4.00583 123.644 5.4223 123.991 6.78308H129.845C129.791 5.31853 128.607 0.0982876 119.466 0.0982876C110.092 0.0982876 108.638 5.56922 108.638 8.65223Z" fill="#005B43"/>
<path fill-rule="evenodd" clip-rule="evenodd" d="M51.2559 17.2331V10.4497H52.7196L58.997 17.2331H65.158L57.264 8.65537V7.88486L64.7518 0.366275H58.2911L52.8314 6.23301H51.2559V0.366275H45.6232V17.2331H51.2559Z" fill="#005B43"/>
<path d="M27.5263 7.82085C27.8351 5.78402 29.1506 4.21672 32.4693 4.21672H32.8047C36.0412 4.21672 37.4013 5.8944 37.7137 7.82085H43.7196C43.5368 4.77406 41.9711 0 33.1889 0H32.173C23.8081 0 21.8948 4.72912 21.6227 7.82085H27.5263Z" fill="#005B43"/>
<path d="M37.7935 9.01789C37.6999 11.2266 36.4225 13.5657 32.8169 13.5657H32.4815C28.6828 13.5657 27.5082 11.4798 27.4646 9.01789H21.5974V9.08477C21.5974 12.1234 23.013 17.599 32.2162 17.599H33.1701C42.6535 17.599 43.7461 12.0325 43.7523 9.01789H37.7935Z" fill="#005B43"/>
<path d="M128.028 26.8591H126.682L124.608 28.9613H122.465L124.736 26.668C123.502 26.5018 122.799 25.8952 122.799 24.8483V24.7652C122.799 23.6434 123.699 22.7793 125.482 22.7793H129.794V28.9613H128.028V26.8591ZM128.028 25.4881V24.142H125.542C124.985 24.142 124.651 24.3497 124.651 24.7984V24.8234C124.651 25.3053 125.045 25.4881 125.542 25.4881H128.028Z" fill="#005B43"/>
<path d="M119.608 28.9613V24.8067L115.879 28.9613H114.113V22.7793H115.879V26.9339L119.608 22.7793H121.374V28.9613H119.608Z" fill="#005B43"/>
<path d="M110.772 28.9613V26.4769H107.214V28.9613H105.448V22.7793H107.214V25.0726H110.772V22.7793H112.538V28.9613H110.772Z" fill="#005B43"/>
<path d="M98.1485 22.7793H103.986V24.1254H99.8887V25.1308H103.858V26.5267H99.8887V27.5986H104.038V28.9613H98.1485V22.7793Z" fill="#005B43"/>
<path d="M87.0894 28.9613V22.7793H88.8553V27.5986H90.947V22.7793H92.7129V27.5986H94.8046V22.7793H96.5705V28.9613H87.0894Z" fill="#005B43"/>
<path d="M79.7897 22.7793H85.6275V24.1254H81.5299V25.1308H85.4989V26.5267H81.5299V27.5986H85.679V28.9613H79.7897V22.7793Z" fill="#005B43"/>
<path d="M75.9144 26.9838H73.3598V28.9613H71.5939V22.7793H75.9144C77.929 22.7793 78.5547 23.6351 78.5547 24.8317V24.9231C78.5547 26.0947 77.9118 26.9838 75.9144 26.9838ZM73.3598 24.1586V25.6044H75.7858C76.4288 25.6044 76.7202 25.3385 76.7202 24.8981V24.8649C76.7202 24.4328 76.4288 24.1586 75.7858 24.1586H73.3598Z" fill="#005B43"/>
<path d="M61.8157 22.7793H67.6536V24.1254H63.5559V25.1308H67.525V26.5267H63.5559V27.5986H67.705V28.9613H61.8157V22.7793Z" fill="#005B43"/>
<path d="M52.5646 22.7793V24.7735H55.1621C57.1423 24.7735 57.7596 25.6377 57.7596 26.8093V26.9007C57.7596 28.0723 57.1166 28.9613 55.1621 28.9613H50.7987V22.7793H52.5646ZM52.5646 27.5986H55.0249C55.625 27.5986 55.925 27.3078 55.925 26.884V26.8259C55.925 26.4104 55.625 26.1362 55.0249 26.1362H52.5646V27.5986ZM60.237 22.7793V28.9613H58.4711V22.7793H60.237Z" fill="#005B43"/>
<path d="M42.3099 28.9613V22.7793H46.9648C48.7907 22.7793 49.2451 23.552 49.2451 24.2417V24.3331C49.2451 25.1059 48.5507 25.4964 48.0706 25.5546C48.7907 25.6543 49.5622 26.0947 49.5622 27.0835V27.1749C49.5622 28.0141 49.0393 28.9613 46.9905 28.9613H42.3099ZM46.7076 24.0672H44.0759V25.1723H46.7076C47.2391 25.1723 47.402 24.9231 47.402 24.6322V24.6156C47.402 24.3165 47.2305 24.0672 46.7076 24.0672ZM46.8448 26.3855H44.0759V27.6069H46.8448C47.4706 27.6069 47.642 27.2995 47.642 26.9838V26.9505C47.642 26.6431 47.4706 26.3855 46.8448 26.3855Z" fill="#005B43"/>
<path d="M36.8094 22.6794H37.1866C40.1698 22.6794 41.0185 24.3828 41.0185 25.7289V25.9782C41.0185 27.3076 40.1698 29.0609 37.1866 29.0609H36.8094C33.8262 29.0609 32.9775 27.3076 32.9775 25.9782V25.7289C32.9775 24.3828 33.8262 22.6794 36.8094 22.6794ZM39.184 25.7954C39.184 25.0309 38.7982 24.092 36.998 24.092C35.2149 24.092 34.812 25.0309 34.812 25.7954V25.9117C34.812 26.6595 35.2406 27.64 36.998 27.64C38.7897 27.64 39.184 26.6595 39.184 25.9117V25.7954Z" fill="#005B43"/>
<path d="M29.385 26.9838H26.8304V28.9613H25.0644V22.7793H29.385C31.3995 22.7793 32.0253 23.6351 32.0253 24.8317V24.9231C32.0253 26.0947 31.3824 26.9838 29.385 26.9838ZM26.8304 24.1586V25.6044H29.2564C29.8993 25.6044 30.1908 25.3385 30.1908 24.8981V24.8649C30.1908 24.4328 29.8993 24.1586 29.2564 24.1586H26.8304Z" fill="#005B43"/>
<path d="M16.2321 27.5986C16.6692 26.8176 16.9436 25.6792 16.9436 22.7793H23.03V27.5986H24.0587V30H22.3785V28.9613H17.2693V30H15.5891V27.5986H16.2321ZM18.0237 27.5986H21.2641V24.142H18.6238C18.6238 25.8205 18.3237 27.017 18.0237 27.5986Z" fill="#005B43"/>
<path d="M13.4747 28.9613L12.9518 27.8147H9.50568L8.99133 28.9613H7.21683L10.0457 22.7793H12.4118L15.3693 28.9613H13.4747ZM10.08 26.5434H12.3603L11.203 24.0257L10.08 26.5434Z" fill="#005B43"/>
<path d="M4.83488 28.9613L1.76593 26.0531V28.9613H0V22.7793H1.76593V25.3219L4.74916 22.7793H6.99515L3.63474 25.6127L7.14088 28.9613H4.83488Z" fill="#005B43"/>
</svg>
